<?xml version="1.0" encoding="utf-8"?>
<!-- Generator: Adobe Illustrator 19.0.0, SVG Export Plug-In . SVG Version: 6.00 Build 0)  -->
<svg version="1.1" id="Layer_1" xmlns="http://www.w3.org/2000/svg" xmlns:xlink="http://www.w3.org/1999/xlink" x="0px" y="0px"
	 viewBox="0 0 450 160" style="enable-background:new 0 0 450 160;" xml:space="preserve">
<style type="text/css">
	.st0{fill:#FFFFFF;}
</style>
<g id="XMLID_5_">
	<path id="XMLID_170_" class="st0" d="M155.2,46.8V32.2c0-16.7-13.4-30.2-30-30.2H31C14.4,2,1,15.5,1,32.2V157h124.2
		c16.6,0,30-13.5,30-30.2v-14.7h-9v14.7c0,11.6-9.4,21.1-21,21.1H10V32.2C10,20.5,19.4,11,31,11h94.2c11.6,0,21,9.5,21,21.1v14.7
		H155.2z"/>
</g>
<path id="XMLID_2_" class="st0" d="M56.1,59.5c11,0,16.8,6.7,16.8,19.5c0,13.3-5.7,20.1-16.8,20.1H43.5V59.5H56.1z M51.2,92.4H55
	c6.8,0,10-4.1,10-13.2c0-8.7-3.2-12.9-10-12.9h-3.8V92.4z M82.8,99.2v-6.7H91V66.2h-8.2v-6.7h24.1v6.7h-8.2v26.2h8.2v6.7H82.8z
	 M124.9,88.1c0.4,3.4,3.1,5.4,7.6,5.4c4.3,0,7-2.1,7-5.3c0-2.7-1.7-4.1-6.3-5.1l-4.1-1c-7.1-1.6-10.6-5.4-10.6-11.3
	c0-7.4,5.4-12.1,14-12.1c8.3,0,13.8,4.6,14.1,11.7h-7.3c-0.3-3.3-2.8-5.3-6.6-5.3c-3.9,0-6.3,1.8-6.3,4.8c0,2.8,1.7,4.3,6,5.3l4,0.9
	c7.6,1.7,11,5.1,11,11.2c0,7.8-5.6,12.6-14.8,12.6c-8.9,0-14.5-4.5-14.8-11.9H124.9z M165.8,99.2V66.2h-11.3v-6.7h30.3v6.7h-11.3
	v32.9H165.8z M201.4,84.6v14.6h-7.7V59.5H208c8.6,0,13.8,4.8,13.8,12.6c0,5.1-2.7,9.4-7,11.1l7.9,15.9H214l-6.9-14.6H201.4z
	 M201.4,78.6h5.5c4.4,0,7-2.4,7-6.4c0-3.9-2.6-6.3-6.9-6.3h-5.6V78.6z M232.4,99.2v-6.7h8.2V66.2h-8.2v-6.7h24.1v6.7h-8.2v26.2h8.2
	v6.7H232.4z M268.5,99.2V59.5H283c7.6,0,12.1,3.7,12.1,9.9c0,4.3-3,7.9-7.1,8.5v0.5c5.2,0.4,9,4.4,9,9.5c0,7-5.2,11.3-13.7,11.3
	H268.5z M276.1,75.8h4.5c4.3,0,6.8-1.9,6.8-5.1c0-3.4-2.3-5.2-6.4-5.2h-4.8V75.8z M281,93c5.4,0,8-1.8,8-5.9c0-3.8-2.7-5.6-8-5.6
	h-4.8V93H281z M326.2,84.7V59.5h7.8v25.6c0,9.3-5.4,14.8-14.7,14.8s-14.7-5.5-14.7-14.8V59.5h7.8v25.1c0,5.3,2.5,8.3,6.9,8.3
	S326.2,90,326.2,84.7z M352.8,99.2V66.2h-11.3v-6.7h30.3v6.7h-11.3v32.9H352.8z M407.1,99.2h-24.9V59.5h24.9v6.7H390V76h16.1v6.2
	H390v10.2h17.1V99.2z M430.2,59.5c11,0,16.8,6.7,16.8,19.5c0,13.3-5.7,20.1-16.8,20.1h-12.7V59.5H430.2z M425.3,92.4h3.8
	c6.8,0,10-4.1,10-13.2c0-8.7-3.2-12.9-10-12.9h-3.8V92.4z M218.5,152.6h-24.9v-39.7h24.9v6.7h-17.1v9.8h16.1v6.2h-16.1v10.2h17.1
	V152.6z M250.5,138.9h7.9c0,9-5.6,14.5-14.5,14.5c-9.8,0-15.5-6.1-15.5-16.6v-8.1c0-10.4,5.7-16.6,15.5-16.6
	c9.1,0,14.5,5.5,14.5,14.8h-7.9c-0.1-4.8-2.8-7.8-6.8-7.8c-4.8,0-7.3,3.3-7.3,9.6v8.1c0,6.3,2.5,9.6,7.4,9.6
	C247.8,146.3,250.4,143.5,250.5,138.9z M280.3,153.4c-9.5,0-15.2-6.6-15.2-17.6v-6.1c0-11,5.7-17.6,15.2-17.6
	c9.5,0,15.2,6.6,15.2,17.6v6.1C295.5,146.8,289.7,153.4,280.3,153.4z M287.6,135.7v-5.9c0-7.1-2.5-10.7-7.3-10.7
	c-4.8,0-7.3,3.6-7.3,10.7v5.9c0,7.1,2.5,10.7,7.3,10.7C285,146.4,287.6,142.8,287.6,135.7z M303.9,152.6v-39.7h6.9l13.6,26.4h0.5
	v-26.4h6.7v39.7h-6.9L311.1,126h-0.5v26.5H303.9z M355.1,153.4c-9.5,0-15.2-6.6-15.2-17.6v-6.1c0-11,5.7-17.6,15.2-17.6
	c9.5,0,15.2,6.6,15.2,17.6v6.1C370.3,146.8,364.6,153.4,355.1,153.4z M362.4,135.7v-5.9c0-7.1-2.5-10.7-7.3-10.7
	c-4.8,0-7.3,3.6-7.3,10.7v5.9c0,7.1,2.5,10.7,7.3,10.7C359.9,146.4,362.4,142.8,362.4,135.7z M384.1,152.6h-6.5v-39.7h8l6.7,22.7
	h0.5l6.6-22.7h8v39.7h-6.5v-13.1l1-15.8h-0.6l-6.2,19.6h-5.2l-6.2-19.6h-0.6l1,15.8V152.6z M426,152.6v-14.6l-12.7-25h8.4l7.9,16.9
	h0.5l7.9-16.9h8.4l-12.7,25v14.6H426z"/>
</svg>
