<?xml version="1.0" encoding="utf-8"?>
<!-- Generator: Adobe Illustrator 19.0.0, SVG Export Plug-In . SVG Version: 6.00 Build 0)  -->
<svg version="1.1" id="Layer_1" xmlns="http://www.w3.org/2000/svg" xmlns:xlink="http://www.w3.org/1999/xlink" x="0px" y="0px"
	 viewBox="213 -68 450 160" style="enable-background:new 213 -68 450 160;" xml:space="preserve">
<style type="text/css">
	.st0{fill:#030B13;}
</style>
<g id="XMLID_5_">
	<path id="XMLID_170_" class="st0" d="M368.2-21.2v-14.6c0-16.7-13.4-30.2-30-30.2H244c-16.6,0-30,13.5-30,30.2V89h124.2
		c16.6,0,30-13.5,30-30.2V44.1h-9v14.7c0,11.6-9.4,21.1-21,21.1H223V-35.8c0-11.7,9.4-21.2,21-21.2h94.2c11.6,0,21,9.5,21,21.1v14.7
		H368.2z"/>
</g>
<path id="XMLID_2_" class="st0" d="M269.1-8.5c11,0,16.8,6.7,16.8,19.5c0,13.3-5.7,20.1-16.8,20.1h-12.6V-8.5H269.1z M264.2,24.4
	h3.8c6.8,0,10-4.1,10-13.2c0-8.7-3.2-12.9-10-12.9h-3.8V24.4z M295.8,31.2v-6.7h8.2V-1.8h-8.2v-6.7h24.1v6.7h-8.2v26.2h8.2v6.7
	h-24.1V31.2z M337.9,20.1c0.4,3.4,3.1,5.4,7.6,5.4c4.3,0,7-2.1,7-5.3c0-2.7-1.7-4.1-6.3-5.1l-4.1-1c-7.1-1.6-10.6-5.4-10.6-11.3
	c0-7.4,5.4-12.1,14-12.1c8.3,0,13.8,4.6,14.1,11.7h-7.3c-0.3-3.3-2.8-5.3-6.6-5.3c-3.9,0-6.3,1.8-6.3,4.8c0,2.8,1.7,4.3,6,5.3l4,0.9
	c7.6,1.7,11,5.1,11,11.2c0,7.8-5.6,12.6-14.8,12.6c-8.9,0-14.5-4.5-14.8-11.9h7.1V20.1z M378.8,31.2v-33h-11.3v-6.7h30.3v6.7h-11.3
	v32.9L378.8,31.2L378.8,31.2z M414.4,16.6v14.6h-7.7V-8.5H421c8.6,0,13.8,4.8,13.8,12.6c0,5.1-2.7,9.4-7,11.1l7.9,15.9H427
	l-6.9-14.6L414.4,16.6L414.4,16.6z M414.4,10.6h5.5c4.4,0,7-2.4,7-6.4c0-3.9-2.6-6.3-6.9-6.3h-5.6V10.6z M445.4,31.2v-6.7h8.2V-1.8
	h-8.2v-6.7h24.1v6.7h-8.2v26.2h8.2v6.7h-24.1V31.2z M481.5,31.2V-8.5H496c7.6,0,12.1,3.7,12.1,9.9c0,4.3-3,7.9-7.1,8.5v0.5
	c5.2,0.4,9,4.4,9,9.5c0,7-5.2,11.3-13.7,11.3C496.3,31.2,481.5,31.2,481.5,31.2z M489.1,7.8h4.5c4.3,0,6.8-1.9,6.8-5.1
	c0-3.4-2.3-5.2-6.4-5.2h-4.8V7.8H489.1z M494,25c5.4,0,8-1.8,8-5.9c0-3.8-2.7-5.6-8-5.6h-4.8V25H494z M539.2,16.7V-8.5h7.8v25.6
	c0,9.3-5.4,14.8-14.7,14.8s-14.7-5.5-14.7-14.8V-8.5h7.8v25.1c0,5.3,2.5,8.3,6.9,8.3C536.7,24.9,539.2,22,539.2,16.7z M565.8,31.2
	v-33h-11.3v-6.7h30.3v6.7h-11.3v32.9L565.8,31.2L565.8,31.2z M620.1,31.2h-24.9V-8.5h24.9v6.7H603V8h16.1v6.2H603v10.2h17.1V31.2z
	 M643.2-8.5c11,0,16.8,6.7,16.8,19.5c0,13.3-5.7,20.1-16.8,20.1h-12.7V-8.5H643.2z M638.3,24.4h3.8c6.8,0,10-4.1,10-13.2
	c0-8.7-3.2-12.9-10-12.9h-3.8V24.4z M431.5,84.6h-24.9V44.9h24.9v6.7h-17.1v9.8h16.1v6.2h-16.1v10.2h17.1V84.6z M463.5,70.9h7.9
	c0,9-5.6,14.5-14.5,14.5c-9.8,0-15.5-6.1-15.5-16.6v-8.1c0-10.4,5.7-16.6,15.5-16.6c9.1,0,14.5,5.5,14.5,14.8h-7.9
	c-0.1-4.8-2.8-7.8-6.8-7.8c-4.8,0-7.3,3.3-7.3,9.6v8.1c0,6.3,2.5,9.6,7.4,9.6C460.8,78.3,463.4,75.5,463.5,70.9z M493.3,85.4
	c-9.5,0-15.2-6.6-15.2-17.6v-6.1c0-11,5.7-17.6,15.2-17.6s15.2,6.6,15.2,17.6v6.1C508.5,78.8,502.7,85.4,493.3,85.4z M500.6,67.7
	v-5.9c0-7.1-2.5-10.7-7.3-10.7s-7.3,3.6-7.3,10.7v5.9c0,7.1,2.5,10.7,7.3,10.7C498,78.4,500.6,74.8,500.6,67.7z M516.9,84.6V44.9
	h6.9l13.6,26.4h0.5V44.9h6.7v39.7h-6.9L524.1,58h-0.5v26.5h-6.7V84.6z M568.1,85.4c-9.5,0-15.2-6.6-15.2-17.6v-6.1
	c0-11,5.7-17.6,15.2-17.6s15.2,6.6,15.2,17.6v6.1C583.3,78.8,577.6,85.4,568.1,85.4z M575.4,67.7v-5.9c0-7.1-2.5-10.7-7.3-10.7
	c-4.8,0-7.3,3.6-7.3,10.7v5.9c0,7.1,2.5,10.7,7.3,10.7C572.9,78.4,575.4,74.8,575.4,67.7z M597.1,84.6h-6.5V44.9h8l6.7,22.7h0.5
	l6.6-22.7h8v39.7h-6.5V71.5l1-15.8h-0.6l-6.2,19.6h-5.2l-6.2-19.6h-0.6l1,15.8V84.6L597.1,84.6z M639,84.6V70l-12.7-25h8.4l7.9,16.9
	h0.5L651,45h8.4l-12.7,25v14.6H639z"/>
</svg>
