<?xml version="1.0" encoding="utf-8"?>
<!-- Generator: Adobe Illustrator 19.0.0, SVG Export Plug-In . SVG Version: 6.00 Build 0)  -->
<svg version="1.1" id="Layer_1" xmlns="http://www.w3.org/2000/svg" xmlns:xlink="http://www.w3.org/1999/xlink" x="0px" y="0px"
	 viewBox="0 0 160 65" style="enable-background:new 0 0 160 65;" xml:space="preserve">
<style type="text/css">
	.st0{fill:url(#XMLID_15_);}
	.st1{fill:url(#XMLID_16_);}
	.st2{fill:url(#XMLID_17_);}
	.st3{fill:#FFFFFF;}
</style>
<g id="XMLID_366_">
	<g id="XMLID_488_">
		<linearGradient id="XMLID_15_" gradientUnits="userSpaceOnUse" x1="44.5355" y1="28.5201" x2="21.0082" y2="4.9928">
			<stop  offset="0" style="stop-color:#BDD539"/>
			<stop  offset="1" style="stop-color:#EAC71B"/>
		</linearGradient>
		<path id="XMLID_491_" class="st0" d="M25.8,28.5h18.7V9.8c0-3.8-3-6.8-6.8-6.8H25.8C22.1,3,19,6,19,9.8v11.9
			C19,25.5,22.1,28.5,25.8,28.5z"/>
		<linearGradient id="XMLID_16_" gradientUnits="userSpaceOnUse" x1="44.5355" y1="59.1436" x2="21.0082" y2="35.6163">
			<stop  offset="0" style="stop-color:#ED4137"/>
			<stop  offset="1" style="stop-color:#F59120"/>
		</linearGradient>
		<path id="XMLID_490_" class="st1" d="M25.8,59.1h18.7V40.4c0-3.8-3-6.8-6.8-6.8H25.8c-3.8,0-6.8,3-6.8,6.8v11.9
			C19,56.1,22.1,59.1,25.8,59.1z"/>
		<linearGradient id="XMLID_17_" gradientUnits="userSpaceOnUse" x1="24.5312" y1="42.8352" x2="2.9971" y2="21.3012">
			<stop  offset="0" style="stop-color:#2E368D"/>
			<stop  offset="1" style="stop-color:#09AED6"/>
		</linearGradient>
		<path id="XMLID_489_" class="st2" d="M20.7,43.8H2V25.1c0-3.8,3-6.8,6.8-6.8h11.9c3.8,0,6.8,3,6.8,6.8V37
			C27.5,40.8,24.5,43.8,20.7,43.8z"/>
	</g>
	<g id="XMLID_367_">
		<g id="XMLID_427_">
			<path id="XMLID_547_" class="st3" d="M50.5,3h3.8l3.6,6l3.5-6h3.7l-5.6,9.4v5.8h-3.3v-5.9L50.5,3z"/>
			<path id="XMLID_544_" class="st3" d="M63.2,10.3c0.3-0.7,0.7-1.3,1.2-1.8c0.5-0.5,1.1-0.9,1.8-1.2c0.7-0.3,1.5-0.4,2.3-0.4
				c0.9,0,1.7,0.1,2.4,0.4c0.7,0.3,1.3,0.7,1.8,1.2c0.5,0.5,0.9,1.1,1.2,1.8c0.3,0.7,0.4,1.5,0.4,2.4c0,0.9-0.1,1.7-0.4,2.4
				c-0.3,0.7-0.7,1.3-1.2,1.8c-0.5,0.5-1.1,0.9-1.8,1.2c-0.7,0.3-1.5,0.4-2.4,0.4c-0.9,0-1.6-0.1-2.3-0.4c-0.7-0.3-1.3-0.7-1.8-1.2
				c-0.5-0.5-0.9-1.1-1.2-1.8c-0.3-0.7-0.4-1.5-0.4-2.4C62.8,11.8,62.9,11,63.2,10.3z M65.9,14c0.1,0.4,0.2,0.8,0.4,1.1
				c0.2,0.3,0.5,0.6,0.8,0.8c0.3,0.2,0.8,0.3,1.3,0.3c0.5,0,0.9-0.1,1.3-0.3c0.3-0.2,0.6-0.5,0.8-0.8c0.2-0.3,0.4-0.7,0.4-1.1
				c0.1-0.4,0.1-0.9,0.1-1.3c0-0.4,0-0.9-0.1-1.3c-0.1-0.4-0.2-0.8-0.4-1.1c-0.2-0.3-0.5-0.6-0.8-0.8c-0.3-0.2-0.8-0.3-1.3-0.3
				c-0.5,0-0.9,0.1-1.3,0.3c-0.3,0.2-0.6,0.5-0.8,0.8c-0.2,0.3-0.4,0.7-0.4,1.1c-0.1,0.4-0.1,0.9-0.1,1.3
				C65.8,13.2,65.9,13.6,65.9,14z"/>
			<path id="XMLID_542_" class="st3" d="M83.1,18.2v-1.5H83c-0.4,0.6-0.9,1.1-1.5,1.4c-0.6,0.3-1.2,0.4-1.9,0.4
				c-0.8,0-1.5-0.1-2-0.3c-0.5-0.2-0.9-0.5-1.2-0.9c-0.3-0.4-0.5-0.9-0.6-1.4c-0.1-0.6-0.2-1.2-0.2-1.9V7.2h3v6.2
				c0,0.9,0.1,1.6,0.4,2c0.3,0.4,0.8,0.7,1.5,0.7c0.8,0,1.4-0.2,1.8-0.7c0.4-0.5,0.6-1.3,0.6-2.4V7.2h3v11H83.1z"/>
			<path id="XMLID_540_" class="st3" d="M90.6,7.2v1.5h0.1c0.4-0.6,0.9-1.1,1.5-1.4c0.6-0.3,1.2-0.4,1.9-0.4c0.8,0,1.5,0.1,2,0.3
				c0.5,0.2,0.9,0.5,1.2,0.9c0.3,0.4,0.5,0.9,0.6,1.4c0.1,0.6,0.2,1.2,0.2,1.9v6.8h-3V12c0-0.9-0.1-1.6-0.4-2
				c-0.3-0.4-0.8-0.7-1.5-0.7c-0.8,0-1.4,0.2-1.8,0.7c-0.4,0.5-0.6,1.3-0.6,2.4v5.8h-3v-11H90.6z"/>
			<path id="XMLID_537_" class="st3" d="M110.2,19c-0.1,0.6-0.4,1.1-0.8,1.6c-0.4,0.5-1,0.9-1.7,1.2c-0.8,0.3-1.8,0.5-3,0.5
				c-0.5,0-1.1-0.1-1.7-0.2c-0.6-0.1-1.1-0.3-1.5-0.6c-0.5-0.3-0.8-0.7-1.2-1.1c-0.3-0.4-0.5-1-0.5-1.6h3c0.1,0.6,0.4,1,0.8,1.2
				c0.4,0.2,0.9,0.3,1.4,0.3c0.9,0,1.5-0.3,1.9-0.8c0.4-0.5,0.6-1.2,0.6-1.9v-1.5h0c-0.3,0.6-0.8,1-1.4,1.3
				c-0.6,0.3-1.2,0.4-1.9,0.4c-0.8,0-1.5-0.1-2.1-0.4c-0.6-0.3-1.1-0.7-1.5-1.2c-0.4-0.5-0.7-1.1-0.8-1.8c-0.2-0.7-0.3-1.4-0.3-2.1
				c0-0.7,0.1-1.4,0.3-2.1c0.2-0.7,0.5-1.2,0.9-1.7c0.4-0.5,0.9-0.9,1.5-1.2s1.3-0.4,2-0.4c0.7,0,1.4,0.1,1.9,0.4
				c0.5,0.3,1,0.7,1.4,1.4h0V7.2h2.9v10.3C110.4,18,110.4,18.5,110.2,19z M106.1,15.4c0.3-0.2,0.6-0.4,0.8-0.7
				c0.2-0.3,0.4-0.6,0.5-1c0.1-0.4,0.2-0.7,0.2-1.1c0-0.5,0-0.9-0.1-1.3c-0.1-0.4-0.2-0.8-0.4-1.1c-0.2-0.3-0.5-0.6-0.8-0.7
				c-0.3-0.2-0.7-0.3-1.2-0.3c-0.4,0-0.8,0.1-1.1,0.3c-0.3,0.2-0.6,0.4-0.8,0.7c-0.2,0.3-0.4,0.6-0.4,1c-0.1,0.4-0.1,0.8-0.1,1.2
				c0,0.4,0,0.8,0.1,1.2c0.1,0.4,0.2,0.7,0.4,1.1c0.2,0.3,0.4,0.6,0.8,0.8c0.3,0.2,0.7,0.3,1.2,0.3
				C105.4,15.6,105.8,15.5,106.1,15.4z"/>
			<path id="XMLID_535_" class="st3" d="M61.9,27.5c-0.2-0.3-0.4-0.6-0.7-0.8c-0.3-0.2-0.6-0.4-1-0.6c-0.4-0.1-0.8-0.2-1.2-0.2
				c-0.8,0-1.4,0.1-1.9,0.4c-0.5,0.3-1,0.7-1.3,1.2c-0.3,0.5-0.6,1-0.7,1.7c-0.1,0.6-0.2,1.3-0.2,1.9c0,0.6,0.1,1.3,0.2,1.9
				c0.1,0.6,0.4,1.1,0.7,1.6c0.3,0.5,0.8,0.9,1.3,1.2c0.5,0.3,1.2,0.4,1.9,0.4c1,0,1.8-0.3,2.4-0.9c0.6-0.6,0.9-1.5,1.1-2.5h3.2
				c-0.1,1-0.3,1.8-0.7,2.6c-0.4,0.8-0.8,1.4-1.4,2c-0.6,0.5-1.3,1-2,1.2C60.7,38.9,59.9,39,59,39c-1.2,0-2.2-0.2-3.1-0.6
				c-0.9-0.4-1.7-1-2.4-1.7c-0.6-0.7-1.1-1.5-1.5-2.5c-0.3-1-0.5-2-0.5-3.1c0-1.1,0.2-2.2,0.5-3.2c0.3-1,0.8-1.8,1.5-2.6
				c0.6-0.7,1.4-1.3,2.4-1.7c0.9-0.4,2-0.6,3.1-0.6c0.8,0,1.6,0.1,2.4,0.4c0.7,0.2,1.4,0.6,2,1.1c0.6,0.5,1.1,1,1.5,1.7
				c0.4,0.7,0.6,1.5,0.7,2.3h-3.2C62.2,28.2,62.1,27.8,61.9,27.5z"/>
			<path id="XMLID_532_" class="st3" d="M67.1,30.8c0.3-0.7,0.7-1.3,1.2-1.8c0.5-0.5,1.1-0.9,1.8-1.2c0.7-0.3,1.5-0.4,2.3-0.4
				c0.9,0,1.7,0.1,2.4,0.4s1.3,0.7,1.8,1.2c0.5,0.5,0.9,1.1,1.2,1.8c0.3,0.7,0.4,1.5,0.4,2.4c0,0.9-0.1,1.7-0.4,2.4
				c-0.3,0.7-0.7,1.3-1.2,1.8c-0.5,0.5-1.1,0.9-1.8,1.2S73.3,39,72.4,39c-0.9,0-1.6-0.1-2.3-0.4c-0.7-0.3-1.3-0.7-1.8-1.2
				c-0.5-0.5-0.9-1.1-1.2-1.8c-0.3-0.7-0.4-1.5-0.4-2.4C66.7,32.3,66.9,31.5,67.1,30.8z M69.9,34.5c0.1,0.4,0.2,0.8,0.4,1.1
				c0.2,0.3,0.5,0.6,0.8,0.8c0.3,0.2,0.8,0.3,1.3,0.3c0.5,0,0.9-0.1,1.3-0.3c0.3-0.2,0.6-0.5,0.8-0.8c0.2-0.3,0.4-0.7,0.4-1.1
				c0.1-0.4,0.1-0.9,0.1-1.3c0-0.4,0-0.9-0.1-1.3c-0.1-0.4-0.2-0.8-0.4-1.1c-0.2-0.3-0.5-0.6-0.8-0.8c-0.3-0.2-0.8-0.3-1.3-0.3
				c-0.5,0-0.9,0.1-1.3,0.3c-0.3,0.2-0.6,0.5-0.8,0.8c-0.2,0.3-0.4,0.7-0.4,1.1c-0.1,0.4-0.1,0.9-0.1,1.3
				C69.8,33.6,69.8,34.1,69.9,34.5z"/>
			<path id="XMLID_530_" class="st3" d="M82.4,27.7v2h0c0.1-0.3,0.3-0.7,0.6-0.9c0.2-0.3,0.5-0.5,0.8-0.7c0.3-0.2,0.6-0.4,1-0.5
				c0.4-0.1,0.7-0.2,1.1-0.2c0.2,0,0.4,0,0.7,0.1v2.8c-0.1,0-0.3-0.1-0.5-0.1c-0.2,0-0.4,0-0.6,0c-0.6,0-1,0.1-1.4,0.3
				c-0.4,0.2-0.7,0.4-0.9,0.8c-0.2,0.3-0.4,0.7-0.5,1.1c-0.1,0.4-0.1,0.9-0.1,1.4v5h-3v-11H82.4z"/>
			<path id="XMLID_527_" class="st3" d="M90.6,27.7v1.4h0c0.4-0.6,0.8-1,1.4-1.3c0.6-0.3,1.2-0.4,1.9-0.4c0.9,0,1.6,0.2,2.2,0.5
				c0.6,0.3,1.1,0.8,1.6,1.3c0.4,0.5,0.7,1.2,0.9,1.9c0.2,0.7,0.3,1.5,0.3,2.3c0,0.7-0.1,1.5-0.3,2.1c-0.2,0.7-0.5,1.3-0.9,1.8
				c-0.4,0.5-0.9,0.9-1.5,1.3c-0.6,0.3-1.3,0.5-2.1,0.5c-0.7,0-1.3-0.1-1.9-0.4c-0.6-0.3-1-0.7-1.4-1.2h0v5.2h-3V27.7H90.6z
				 M94.5,36.4c0.3-0.2,0.6-0.5,0.8-0.8c0.2-0.3,0.4-0.7,0.4-1.1c0.1-0.4,0.1-0.9,0.1-1.3c0-0.4,0-0.9-0.1-1.3
				c-0.1-0.4-0.2-0.8-0.5-1.1c-0.2-0.3-0.5-0.6-0.8-0.8c-0.3-0.2-0.7-0.3-1.2-0.3c-0.5,0-0.9,0.1-1.2,0.3c-0.3,0.2-0.6,0.5-0.8,0.8
				c-0.2,0.3-0.4,0.7-0.4,1.1c-0.1,0.4-0.1,0.9-0.1,1.3c0,0.4,0,0.9,0.1,1.3c0.1,0.4,0.2,0.8,0.4,1.1c0.2,0.3,0.5,0.6,0.8,0.8
				c0.3,0.2,0.8,0.3,1.2,0.3C93.8,36.7,94.2,36.6,94.5,36.4z"/>
			<path id="XMLID_524_" class="st3" d="M100.3,30.8c0.3-0.7,0.7-1.3,1.2-1.8c0.5-0.5,1.1-0.9,1.8-1.2c0.7-0.3,1.5-0.4,2.3-0.4
				c0.9,0,1.7,0.1,2.4,0.4s1.3,0.7,1.8,1.2c0.5,0.5,0.9,1.1,1.2,1.8c0.3,0.7,0.4,1.5,0.4,2.4c0,0.9-0.1,1.7-0.4,2.4
				c-0.3,0.7-0.7,1.3-1.2,1.8c-0.5,0.5-1.1,0.9-1.8,1.2s-1.5,0.4-2.4,0.4c-0.9,0-1.6-0.1-2.3-0.4c-0.7-0.3-1.3-0.7-1.8-1.2
				c-0.5-0.5-0.9-1.1-1.2-1.8c-0.3-0.7-0.4-1.5-0.4-2.4C99.9,32.3,100,31.5,100.3,30.8z M103,34.5c0.1,0.4,0.2,0.8,0.4,1.1
				c0.2,0.3,0.5,0.6,0.8,0.8c0.3,0.2,0.8,0.3,1.3,0.3s0.9-0.1,1.3-0.3c0.3-0.2,0.6-0.5,0.8-0.8c0.2-0.3,0.4-0.7,0.4-1.1
				c0.1-0.4,0.1-0.9,0.1-1.3c0-0.4,0-0.9-0.1-1.3c-0.1-0.4-0.2-0.8-0.4-1.1c-0.2-0.3-0.5-0.6-0.8-0.8c-0.3-0.2-0.8-0.3-1.3-0.3
				s-0.9,0.1-1.3,0.3c-0.3,0.2-0.6,0.5-0.8,0.8c-0.2,0.3-0.4,0.7-0.4,1.1c-0.1,0.4-0.1,0.9-0.1,1.3C102.9,33.6,103,34.1,103,34.5z"
				/>
			<path id="XMLID_522_" class="st3" d="M115.2,27.7v2h0c0.1-0.3,0.3-0.7,0.6-0.9c0.2-0.3,0.5-0.5,0.8-0.7c0.3-0.2,0.6-0.4,1-0.5
				c0.4-0.1,0.7-0.2,1.1-0.2c0.2,0,0.4,0,0.7,0.1v2.8c-0.1,0-0.3-0.1-0.5-0.1c-0.2,0-0.4,0-0.6,0c-0.6,0-1,0.1-1.4,0.3
				c-0.4,0.2-0.7,0.4-0.9,0.8c-0.2,0.3-0.4,0.7-0.5,1.1c-0.1,0.4-0.1,0.9-0.1,1.4v5h-3v-11H115.2z"/>
			<path id="XMLID_519_" class="st3" d="M120.3,31c0-0.7,0.2-1.3,0.5-1.8c0.3-0.5,0.7-0.8,1.2-1.1c0.5-0.3,1-0.5,1.6-0.6
				c0.6-0.1,1.2-0.2,1.8-0.2c0.6,0,1.1,0,1.7,0.1c0.6,0.1,1.1,0.2,1.6,0.5c0.5,0.2,0.9,0.5,1.2,0.9c0.3,0.4,0.4,0.9,0.4,1.6v5.7
				c0,0.5,0,1,0.1,1.4c0.1,0.5,0.2,0.8,0.3,1h-3.1c-0.1-0.2-0.1-0.3-0.1-0.5c0-0.2-0.1-0.4-0.1-0.5c-0.5,0.5-1.1,0.8-1.7,1
				c-0.7,0.2-1.3,0.3-2,0.3c-0.5,0-1-0.1-1.5-0.2c-0.5-0.1-0.9-0.3-1.2-0.6c-0.3-0.3-0.6-0.6-0.8-1c-0.2-0.4-0.3-0.9-0.3-1.5
				c0-0.6,0.1-1.1,0.3-1.5c0.2-0.4,0.5-0.7,0.9-1c0.3-0.2,0.7-0.4,1.2-0.5c0.4-0.1,0.9-0.2,1.4-0.3c0.5-0.1,0.9-0.1,1.3-0.2
				c0.4,0,0.8-0.1,1.2-0.2c0.3-0.1,0.6-0.2,0.8-0.4c0.2-0.2,0.3-0.4,0.3-0.7c0-0.3-0.1-0.6-0.2-0.8c-0.1-0.2-0.2-0.3-0.4-0.4
				c-0.2-0.1-0.4-0.2-0.6-0.2c-0.2,0-0.5-0.1-0.8-0.1c-0.6,0-1.1,0.1-1.4,0.4c-0.3,0.3-0.5,0.7-0.6,1.3H120.3z M127.3,33.3
				c-0.1,0.1-0.3,0.2-0.5,0.3c-0.2,0.1-0.4,0.1-0.6,0.2c-0.2,0-0.5,0.1-0.7,0.1c-0.2,0-0.5,0.1-0.7,0.1c-0.2,0-0.5,0.1-0.7,0.2
				c-0.2,0.1-0.4,0.2-0.6,0.3c-0.2,0.1-0.3,0.3-0.4,0.5c-0.1,0.2-0.1,0.4-0.1,0.7c0,0.3,0,0.5,0.1,0.7c0.1,0.2,0.2,0.3,0.4,0.4
				c0.2,0.1,0.4,0.2,0.6,0.2c0.2,0,0.5,0.1,0.7,0.1c0.6,0,1.1-0.1,1.4-0.3c0.3-0.2,0.6-0.4,0.7-0.7c0.2-0.3,0.3-0.6,0.3-0.8
				c0-0.3,0.1-0.5,0.1-0.7V33.3z"/>
			<path id="XMLID_517_" class="st3" d="M138.2,27.7v2H136v5.5c0,0.5,0.1,0.9,0.3,1c0.2,0.2,0.5,0.3,1,0.3c0.2,0,0.3,0,0.5,0
				c0.2,0,0.3,0,0.4-0.1v2.3c-0.3,0-0.5,0.1-0.9,0.1c-0.3,0-0.6,0-0.9,0c-0.5,0-0.9,0-1.3-0.1c-0.4-0.1-0.8-0.2-1.1-0.4
				c-0.3-0.2-0.6-0.4-0.8-0.8c-0.2-0.3-0.3-0.8-0.3-1.3v-6.5h-1.8v-2h1.8v-3.3h3v3.3H138.2z"/>
			<path id="XMLID_514_" class="st3" d="M142.4,36c0.5,0.4,1.1,0.7,2,0.7c0.6,0,1.1-0.2,1.6-0.5c0.4-0.3,0.7-0.6,0.8-1h2.7
				c-0.4,1.3-1.1,2.3-2,2.8c-0.9,0.6-1.9,0.9-3.2,0.9c-0.9,0-1.6-0.1-2.3-0.4c-0.7-0.3-1.3-0.7-1.8-1.2s-0.9-1.1-1.1-1.8
				c-0.3-0.7-0.4-1.5-0.4-2.3c0-0.8,0.1-1.6,0.4-2.3c0.3-0.7,0.7-1.3,1.2-1.8c0.5-0.5,1.1-0.9,1.8-1.2c0.7-0.3,1.5-0.4,2.3-0.4
				c0.9,0,1.8,0.2,2.5,0.5c0.7,0.4,1.3,0.9,1.7,1.5c0.4,0.6,0.8,1.3,1,2.1c0.2,0.8,0.3,1.6,0.2,2.5h-7.9
				C141.7,34.9,141.9,35.6,142.4,36z M145.8,30.2c-0.4-0.4-0.9-0.6-1.7-0.6c-0.5,0-0.9,0.1-1.2,0.2c-0.3,0.2-0.6,0.4-0.8,0.6
				c-0.2,0.2-0.3,0.5-0.4,0.8c-0.1,0.3-0.1,0.5-0.1,0.7h4.9C146.4,31.2,146.2,30.6,145.8,30.2z"/>
			<path id="XMLID_512_" class="st3" d="M56.8,43.9l3.6,10.5h0l3.4-10.5h4.7v15.2h-3.1V48.3h0l-3.7,10.8H59l-3.7-10.7h0v10.7h-3.1
				V43.9H56.8z"/>
			<path id="XMLID_509_" class="st3" d="M70.1,51.5c0-0.7,0.2-1.3,0.5-1.8c0.3-0.5,0.7-0.8,1.2-1.1c0.5-0.3,1-0.5,1.6-0.6
				c0.6-0.1,1.2-0.2,1.8-0.2c0.6,0,1.1,0,1.7,0.1c0.6,0.1,1.1,0.2,1.6,0.5c0.5,0.2,0.9,0.5,1.2,0.9c0.3,0.4,0.4,0.9,0.4,1.6v5.7
				c0,0.5,0,1,0.1,1.4c0.1,0.5,0.2,0.8,0.3,1h-3.1c-0.1-0.2-0.1-0.3-0.1-0.5c0-0.2-0.1-0.4-0.1-0.5c-0.5,0.5-1.1,0.8-1.7,1
				c-0.7,0.2-1.3,0.3-2,0.3c-0.5,0-1-0.1-1.5-0.2c-0.5-0.1-0.9-0.3-1.2-0.6c-0.3-0.3-0.6-0.6-0.8-1c-0.2-0.4-0.3-0.9-0.3-1.5
				c0-0.6,0.1-1.1,0.3-1.5c0.2-0.4,0.5-0.7,0.9-1c0.3-0.2,0.7-0.4,1.2-0.5c0.4-0.1,0.9-0.2,1.4-0.3c0.5-0.1,0.9-0.1,1.3-0.2
				c0.4,0,0.8-0.1,1.2-0.2c0.3-0.1,0.6-0.2,0.8-0.4c0.2-0.2,0.3-0.4,0.3-0.7c0-0.3-0.1-0.6-0.2-0.8c-0.1-0.2-0.2-0.3-0.4-0.4
				c-0.2-0.1-0.4-0.2-0.6-0.2c-0.2,0-0.5-0.1-0.8-0.1c-0.6,0-1.1,0.1-1.4,0.4c-0.3,0.3-0.5,0.7-0.6,1.3H70.1z M77,53.7
				c-0.1,0.1-0.3,0.2-0.5,0.3c-0.2,0.1-0.4,0.1-0.6,0.2c-0.2,0-0.5,0.1-0.7,0.1c-0.2,0-0.5,0.1-0.7,0.1c-0.2,0-0.5,0.1-0.7,0.2
				c-0.2,0.1-0.4,0.2-0.6,0.3c-0.2,0.1-0.3,0.3-0.4,0.5c-0.1,0.2-0.1,0.4-0.1,0.7c0,0.3,0,0.5,0.1,0.7c0.1,0.2,0.2,0.3,0.4,0.4
				c0.2,0.1,0.4,0.2,0.6,0.2c0.2,0,0.5,0.1,0.7,0.1c0.6,0,1.1-0.1,1.4-0.3c0.3-0.2,0.6-0.4,0.7-0.7c0.2-0.3,0.3-0.6,0.3-0.8
				c0-0.3,0.1-0.5,0.1-0.7V53.7z"/>
			<path id="XMLID_507_" class="st3" d="M85,43.9v15.2h-3V43.9H85z"/>
			<path id="XMLID_504_" class="st3" d="M86.7,51.5c0-0.7,0.2-1.3,0.5-1.8c0.3-0.5,0.7-0.8,1.2-1.1c0.5-0.3,1-0.5,1.6-0.6
				c0.6-0.1,1.2-0.2,1.8-0.2c0.6,0,1.1,0,1.7,0.1c0.6,0.1,1.1,0.2,1.6,0.5c0.5,0.2,0.9,0.5,1.2,0.9c0.3,0.4,0.4,0.9,0.4,1.6v5.7
				c0,0.5,0,1,0.1,1.4c0.1,0.5,0.2,0.8,0.3,1H94c-0.1-0.2-0.1-0.3-0.1-0.5c0-0.2-0.1-0.4-0.1-0.5c-0.5,0.5-1.1,0.8-1.7,1
				c-0.7,0.2-1.3,0.3-2,0.3c-0.5,0-1-0.1-1.5-0.2c-0.5-0.1-0.9-0.3-1.2-0.6c-0.3-0.3-0.6-0.6-0.8-1c-0.2-0.4-0.3-0.9-0.3-1.5
				c0-0.6,0.1-1.1,0.3-1.5c0.2-0.4,0.5-0.7,0.9-1c0.3-0.2,0.7-0.4,1.2-0.5c0.4-0.1,0.9-0.2,1.4-0.3c0.5-0.1,0.9-0.1,1.3-0.2
				c0.4,0,0.8-0.1,1.2-0.2c0.3-0.1,0.6-0.2,0.8-0.4c0.2-0.2,0.3-0.4,0.3-0.7c0-0.3-0.1-0.6-0.2-0.8c-0.1-0.2-0.2-0.3-0.4-0.4
				c-0.2-0.1-0.4-0.2-0.6-0.2c-0.2,0-0.5-0.1-0.8-0.1c-0.6,0-1.1,0.1-1.4,0.4c-0.3,0.3-0.5,0.7-0.6,1.3H86.7z M93.7,53.7
				c-0.1,0.1-0.3,0.2-0.5,0.3c-0.2,0.1-0.4,0.1-0.6,0.2c-0.2,0-0.5,0.1-0.7,0.1c-0.2,0-0.5,0.1-0.7,0.1c-0.2,0-0.5,0.1-0.7,0.2
				c-0.2,0.1-0.4,0.2-0.6,0.3c-0.2,0.1-0.3,0.3-0.4,0.5c-0.1,0.2-0.1,0.4-0.1,0.7c0,0.3,0,0.5,0.1,0.7c0.1,0.2,0.2,0.3,0.4,0.4
				c0.2,0.1,0.4,0.2,0.6,0.2c0.2,0,0.5,0.1,0.7,0.1c0.6,0,1.1-0.1,1.4-0.3c0.3-0.2,0.6-0.4,0.7-0.7c0.2-0.3,0.3-0.6,0.3-0.8
				c0-0.3,0.1-0.5,0.1-0.7V53.7z"/>
			<path id="XMLID_502_" class="st3" d="M102.6,62.4c-0.6,0.4-1.4,0.6-2.4,0.6c-0.3,0-0.6,0-0.9,0c-0.3,0-0.6,0-0.9-0.1v-2.5
				c0.3,0,0.6,0.1,0.9,0.1c0.3,0,0.6,0,0.9,0c0.4,0,0.7-0.2,0.9-0.5c0.2-0.3,0.3-0.6,0.3-0.9c0-0.2,0-0.5-0.1-0.7l-3.9-10.3h3.2
				l2.5,7.6h0l2.4-7.6h3.1L104,60.5C103.7,61.4,103.2,62,102.6,62.4z"/>
			<path id="XMLID_500_" class="st3" d="M111.6,56.4c0.1,0.2,0.3,0.4,0.5,0.6s0.5,0.3,0.7,0.3c0.3,0.1,0.6,0.1,0.9,0.1
				c0.2,0,0.4,0,0.7-0.1c0.2,0,0.4-0.1,0.6-0.2c0.2-0.1,0.4-0.2,0.5-0.4c0.1-0.2,0.2-0.4,0.2-0.7c0-0.5-0.3-0.8-0.9-1
				c-0.6-0.2-1.4-0.5-2.5-0.7c-0.4-0.1-0.9-0.2-1.3-0.4c-0.4-0.1-0.8-0.3-1.1-0.5c-0.3-0.2-0.6-0.5-0.8-0.8
				c-0.2-0.3-0.3-0.7-0.3-1.2c0-0.7,0.1-1.3,0.4-1.7c0.3-0.5,0.6-0.8,1.1-1.1c0.5-0.3,1-0.4,1.5-0.6c0.6-0.1,1.2-0.2,1.7-0.2
				c0.6,0,1.2,0.1,1.7,0.2c0.6,0.1,1.1,0.3,1.5,0.6c0.4,0.3,0.8,0.6,1.1,1.1c0.3,0.4,0.5,1,0.5,1.7h-2.9c0-0.6-0.3-1-0.7-1.2
				c-0.4-0.2-0.9-0.3-1.4-0.3c-0.2,0-0.4,0-0.6,0c-0.2,0-0.4,0.1-0.5,0.1c-0.2,0.1-0.3,0.2-0.4,0.3c-0.1,0.1-0.2,0.3-0.2,0.5
				c0,0.3,0.1,0.5,0.3,0.7c0.2,0.2,0.5,0.3,0.8,0.4c0.3,0.1,0.7,0.2,1.1,0.3c0.4,0.1,0.8,0.2,1.3,0.3c0.4,0.1,0.9,0.2,1.3,0.4
				c0.4,0.1,0.8,0.3,1.1,0.6c0.3,0.2,0.6,0.5,0.8,0.9c0.2,0.3,0.3,0.8,0.3,1.3c0,0.7-0.1,1.3-0.4,1.8c-0.3,0.5-0.7,0.9-1.1,1.2
				c-0.5,0.3-1,0.5-1.6,0.6c-0.6,0.1-1.2,0.2-1.8,0.2c-0.6,0-1.3-0.1-1.9-0.2c-0.6-0.1-1.2-0.3-1.6-0.6c-0.5-0.3-0.9-0.7-1.2-1.2
				c-0.3-0.5-0.5-1.1-0.5-1.8h2.9C111.4,55.9,111.5,56.2,111.6,56.4z"/>
			<path id="XMLID_497_" class="st3" d="M120.1,46.4v-2.5h3v2.5H120.1z M123.1,48.1v11h-3v-11H123.1z"/>
			<path id="XMLID_494_" class="st3" d="M124.4,51.5c0-0.7,0.2-1.3,0.5-1.8c0.3-0.5,0.7-0.8,1.2-1.1c0.5-0.3,1-0.5,1.6-0.6
				c0.6-0.1,1.2-0.2,1.8-0.2c0.6,0,1.1,0,1.7,0.1c0.6,0.1,1.1,0.2,1.6,0.5c0.5,0.2,0.9,0.5,1.2,0.9c0.3,0.4,0.4,0.9,0.4,1.6v5.7
				c0,0.5,0,1,0.1,1.4c0.1,0.5,0.2,0.8,0.3,1h-3.1c-0.1-0.2-0.1-0.3-0.1-0.5c0-0.2-0.1-0.4-0.1-0.5c-0.5,0.5-1.1,0.8-1.7,1
				c-0.7,0.2-1.3,0.3-2,0.3c-0.5,0-1-0.1-1.5-0.2c-0.5-0.1-0.9-0.3-1.2-0.6c-0.3-0.3-0.6-0.6-0.8-1c-0.2-0.4-0.3-0.9-0.3-1.5
				c0-0.6,0.1-1.1,0.3-1.5c0.2-0.4,0.5-0.7,0.9-1c0.3-0.2,0.7-0.4,1.2-0.5c0.4-0.1,0.9-0.2,1.4-0.3c0.5-0.1,0.9-0.1,1.3-0.2
				c0.4,0,0.8-0.1,1.2-0.2c0.3-0.1,0.6-0.2,0.8-0.4c0.2-0.2,0.3-0.4,0.3-0.7c0-0.3-0.1-0.6-0.2-0.8c-0.1-0.2-0.2-0.3-0.4-0.4
				c-0.2-0.1-0.4-0.2-0.6-0.2c-0.2,0-0.5-0.1-0.8-0.1c-0.6,0-1.1,0.1-1.4,0.4c-0.3,0.3-0.5,0.7-0.6,1.3H124.4z M131.4,53.7
				c-0.1,0.1-0.3,0.2-0.5,0.3c-0.2,0.1-0.4,0.1-0.6,0.2c-0.2,0-0.5,0.1-0.7,0.1c-0.2,0-0.5,0.1-0.7,0.1c-0.2,0-0.5,0.1-0.7,0.2
				c-0.2,0.1-0.4,0.2-0.6,0.3c-0.2,0.1-0.3,0.3-0.4,0.5c-0.1,0.2-0.1,0.4-0.1,0.7c0,0.3,0,0.5,0.1,0.7c0.1,0.2,0.2,0.3,0.4,0.4
				c0.2,0.1,0.4,0.2,0.6,0.2c0.2,0,0.5,0.1,0.7,0.1c0.6,0,1.1-0.1,1.4-0.3c0.3-0.2,0.6-0.4,0.7-0.7c0.2-0.3,0.3-0.6,0.3-0.8
				c0-0.3,0.1-0.5,0.1-0.7V53.7z"/>
			<path id="XMLID_492_" class="st3" d="M139.1,48.1v1.5h0.1c0.4-0.6,0.9-1.1,1.5-1.4c0.6-0.3,1.2-0.4,1.9-0.4c0.8,0,1.5,0.1,2,0.3
				c0.5,0.2,0.9,0.5,1.2,0.9c0.3,0.4,0.5,0.9,0.6,1.4c0.1,0.6,0.2,1.2,0.2,1.9v6.8h-3v-6.2c0-0.9-0.1-1.6-0.4-2
				c-0.3-0.4-0.8-0.7-1.5-0.7c-0.8,0-1.4,0.2-1.8,0.7c-0.4,0.5-0.6,1.3-0.6,2.4v5.8h-3v-11H139.1z"/>
			<path id="XMLID_428_" class="st3" d="M150.9,56.4c0.1,0.2,0.3,0.4,0.5,0.6c0.2,0.1,0.5,0.3,0.7,0.3c0.3,0.1,0.6,0.1,0.9,0.1
				c0.2,0,0.4,0,0.7-0.1c0.2,0,0.4-0.1,0.6-0.2c0.2-0.1,0.4-0.2,0.5-0.4c0.1-0.2,0.2-0.4,0.2-0.7c0-0.5-0.3-0.8-0.9-1
				c-0.6-0.2-1.4-0.5-2.5-0.7c-0.4-0.1-0.9-0.2-1.3-0.4c-0.4-0.1-0.8-0.3-1.1-0.5c-0.3-0.2-0.6-0.5-0.8-0.8
				c-0.2-0.3-0.3-0.7-0.3-1.2c0-0.7,0.1-1.3,0.4-1.7c0.3-0.5,0.6-0.8,1.1-1.1c0.5-0.3,1-0.4,1.5-0.6c0.6-0.1,1.2-0.2,1.7-0.2
				c0.6,0,1.2,0.1,1.7,0.2c0.6,0.1,1.1,0.3,1.5,0.6c0.4,0.3,0.8,0.6,1.1,1.1c0.3,0.4,0.5,1,0.5,1.7h-2.9c0-0.6-0.3-1-0.7-1.2
				c-0.4-0.2-0.9-0.3-1.4-0.3c-0.2,0-0.4,0-0.6,0c-0.2,0-0.4,0.1-0.5,0.1c-0.2,0.1-0.3,0.2-0.4,0.3c-0.1,0.1-0.2,0.3-0.2,0.5
				c0,0.3,0.1,0.5,0.3,0.7c0.2,0.2,0.5,0.3,0.8,0.4c0.3,0.1,0.7,0.2,1.1,0.3c0.4,0.1,0.8,0.2,1.3,0.3c0.4,0.1,0.9,0.2,1.3,0.4
				c0.4,0.1,0.8,0.3,1.1,0.6c0.3,0.2,0.6,0.5,0.8,0.9c0.2,0.3,0.3,0.8,0.3,1.3c0,0.7-0.1,1.3-0.4,1.8c-0.3,0.5-0.7,0.9-1.1,1.2
				c-0.5,0.3-1,0.5-1.6,0.6c-0.6,0.1-1.2,0.2-1.8,0.2c-0.6,0-1.3-0.1-1.9-0.2c-0.6-0.1-1.2-0.3-1.6-0.6c-0.5-0.3-0.9-0.7-1.2-1.2
				c-0.3-0.5-0.5-1.1-0.5-1.8h2.9C150.7,55.9,150.7,56.2,150.9,56.4z"/>
		</g>
	</g>
</g>
</svg>
