<?xml version="1.0" encoding="utf-8"?>
<!-- Generator: Adobe Illustrator 19.0.0, SVG Export Plug-In . SVG Version: 6.00 Build 0)  -->
<svg version="1.1" id="Layer_1" xmlns="http://www.w3.org/2000/svg" xmlns:xlink="http://www.w3.org/1999/xlink" x="0px" y="0px"
	 viewBox="68 -20 160 65" style="enable-background:new 68 -20 160 65;" xml:space="preserve">
<style type="text/css">
	.st0{fill:url(#XMLID_2_);}
	.st1{fill:url(#XMLID_3_);}
	.st2{fill:url(#XMLID_4_);}
</style>
<g id="XMLID_366_">
	<g id="XMLID_488_">
		
			<linearGradient id="XMLID_2_" gradientUnits="userSpaceOnUse" x1="112.5371" y1="17.4815" x2="89.0308" y2="40.9879" gradientTransform="matrix(1 0 0 -1 0 26)">
			<stop  offset="0" style="stop-color:#BDD539"/>
			<stop  offset="1" style="stop-color:#EAC71B"/>
		</linearGradient>
		<path id="XMLID_491_" class="st0" d="M93.8,8.5h18.7v-18.7c0-3.8-3-6.8-6.8-6.8H93.8c-3.7,0-6.8,3-6.8,6.8V1.7
			C87,5.5,90.1,8.5,93.8,8.5z"/>
		
			<linearGradient id="XMLID_3_" gradientUnits="userSpaceOnUse" x1="112.5489" y1="-13.1302" x2="89.0239" y2="10.3948" gradientTransform="matrix(1 0 0 -1 0 26)">
			<stop  offset="0" style="stop-color:#ED4137"/>
			<stop  offset="1" style="stop-color:#F59120"/>
		</linearGradient>
		<path id="XMLID_490_" class="st1" d="M93.8,39.1h18.7V20.4c0-3.8-3-6.8-6.8-6.8H93.8c-3.8,0-6.8,3-6.8,6.8v11.9
			C87,36.1,90.1,39.1,93.8,39.1z"/>
		
			<linearGradient id="XMLID_4_" gradientUnits="userSpaceOnUse" x1="92.5375" y1="3.1875" x2="70.9875" y2="24.7375" gradientTransform="matrix(1 0 0 -1 0 26)">
			<stop  offset="0" style="stop-color:#2E368D"/>
			<stop  offset="1" style="stop-color:#09AED6"/>
		</linearGradient>
		<path id="XMLID_489_" class="st2" d="M88.7,23.8H70V5.1c0-3.8,3-6.8,6.8-6.8h11.9c3.8,0,6.8,3,6.8,6.8V17
			C95.5,20.8,92.5,23.8,88.7,23.8z"/>
	</g>
	<g id="XMLID_367_">
		<g id="XMLID_427_">
			<path id="XMLID_547_" d="M118.5-17h3.8l3.6,6l3.5-6h3.7l-5.6,9.4v5.8h-3.3v-5.9L118.5-17z"/>
			<path id="XMLID_544_" d="M131.2-9.7c0.3-0.7,0.7-1.3,1.2-1.8s1.1-0.9,1.8-1.2c0.7-0.3,1.5-0.4,2.3-0.4c0.9,0,1.7,0.1,2.4,0.4
				s1.3,0.7,1.8,1.2s0.9,1.1,1.2,1.8s0.4,1.5,0.4,2.4c0,0.9-0.1,1.7-0.4,2.4s-0.7,1.3-1.2,1.8s-1.1,0.9-1.8,1.2
				c-0.7,0.3-1.5,0.4-2.4,0.4c-0.9,0-1.6-0.1-2.3-0.4c-0.7-0.3-1.3-0.7-1.8-1.2s-0.9-1.1-1.2-1.8s-0.4-1.5-0.4-2.4
				C130.8-8.2,130.9-9,131.2-9.7z M133.9-6c0.1,0.4,0.2,0.8,0.4,1.1s0.5,0.6,0.8,0.8s0.8,0.3,1.3,0.3s0.9-0.1,1.3-0.3
				c0.3-0.2,0.6-0.5,0.8-0.8s0.4-0.7,0.4-1.1c0.1-0.4,0.1-0.9,0.1-1.3c0-0.4,0-0.9-0.1-1.3c-0.1-0.4-0.2-0.8-0.4-1.1
				s-0.5-0.6-0.8-0.8s-0.8-0.3-1.3-0.3s-0.9,0.1-1.3,0.3c-0.3,0.2-0.6,0.5-0.8,0.8s-0.4,0.7-0.4,1.1c-0.1,0.4-0.1,0.9-0.1,1.3
				C133.8-6.8,133.9-6.4,133.9-6z"/>
			<path id="XMLID_542_" d="M151.1-1.8v-1.5H151c-0.4,0.6-0.9,1.1-1.5,1.4s-1.2,0.4-1.9,0.4c-0.8,0-1.5-0.1-2-0.3
				c-0.5-0.2-0.9-0.5-1.2-0.9c-0.3-0.4-0.5-0.9-0.6-1.4c-0.1-0.6-0.2-1.2-0.2-1.9v-6.8h3v6.2c0,0.9,0.1,1.6,0.4,2
				c0.3,0.4,0.8,0.7,1.5,0.7c0.8,0,1.4-0.2,1.8-0.7c0.4-0.5,0.6-1.3,0.6-2.4v-5.8h3v11H151.1z"/>
			<path id="XMLID_540_" d="M158.6-12.8v1.5h0.1c0.4-0.6,0.9-1.1,1.5-1.4c0.6-0.3,1.2-0.4,1.9-0.4c0.8,0,1.5,0.1,2,0.3
				s0.9,0.5,1.2,0.9c0.3,0.4,0.5,0.9,0.6,1.4c0.1,0.6,0.2,1.2,0.2,1.9v6.8h-3V-8c0-0.9-0.1-1.6-0.4-2c-0.3-0.4-0.8-0.7-1.5-0.7
				c-0.8,0-1.4,0.2-1.8,0.7c-0.4,0.5-0.6,1.3-0.6,2.4v5.8h-3v-11C155.8-12.8,158.6-12.8,158.6-12.8z"/>
			<path id="XMLID_537_" d="M178.2-1c-0.1,0.6-0.4,1.1-0.8,1.6s-1,0.9-1.7,1.2c-0.8,0.3-1.8,0.5-3,0.5c-0.5,0-1.1-0.1-1.7-0.2
				s-1.1-0.3-1.5-0.6c-0.5-0.3-0.8-0.7-1.2-1.1c-0.3-0.4-0.5-1-0.5-1.6h3c0.1,0.6,0.4,1,0.8,1.2s0.9,0.3,1.4,0.3
				c0.9,0,1.5-0.3,1.9-0.8s0.6-1.2,0.6-1.9v-1.5l0,0c-0.3,0.6-0.8,1-1.4,1.3s-1.2,0.4-1.9,0.4c-0.8,0-1.5-0.1-2.1-0.4
				s-1.1-0.7-1.5-1.2s-0.7-1.1-0.8-1.8c-0.2-0.7-0.3-1.4-0.3-2.1s0.1-1.4,0.3-2.1c0.2-0.7,0.5-1.2,0.9-1.7c0.4-0.5,0.9-0.9,1.5-1.2
				c0.6-0.3,1.3-0.4,2-0.4c0.7,0,1.4,0.1,1.9,0.4s1,0.7,1.4,1.4l0,0v-1.5h2.9v10.3C178.4-2,178.4-1.5,178.2-1z M174.1-4.6
				c0.3-0.2,0.6-0.4,0.8-0.7c0.2-0.3,0.4-0.6,0.5-1c0.1-0.4,0.2-0.7,0.2-1.1c0-0.5,0-0.9-0.1-1.3c-0.1-0.4-0.2-0.8-0.4-1.1
				c-0.2-0.3-0.5-0.6-0.8-0.7c-0.3-0.2-0.7-0.3-1.2-0.3c-0.4,0-0.8,0.1-1.1,0.3c-0.3,0.2-0.6,0.4-0.8,0.7s-0.4,0.6-0.4,1
				c-0.1,0.4-0.1,0.8-0.1,1.2s0,0.8,0.1,1.2c0.1,0.4,0.2,0.7,0.4,1.1c0.2,0.3,0.4,0.6,0.8,0.8c0.3,0.2,0.7,0.3,1.2,0.3
				C173.4-4.4,173.8-4.5,174.1-4.6z"/>
			<path id="XMLID_535_" d="M129.9,7.5c-0.2-0.3-0.4-0.6-0.7-0.8c-0.3-0.2-0.6-0.4-1-0.6c-0.4-0.1-0.8-0.2-1.2-0.2
				c-0.8,0-1.4,0.1-1.9,0.4s-1,0.7-1.3,1.2c-0.3,0.5-0.6,1-0.7,1.7c-0.1,0.6-0.2,1.3-0.2,1.9s0.1,1.3,0.2,1.9s0.4,1.1,0.7,1.6
				c0.3,0.5,0.8,0.9,1.3,1.2s1.2,0.4,1.9,0.4c1,0,1.8-0.3,2.4-0.9c0.6-0.6,0.9-1.5,1.1-2.5h3.2c-0.1,1-0.3,1.8-0.7,2.6
				s-0.8,1.4-1.4,2c-0.6,0.5-1.3,1-2,1.2c-0.9,0.3-1.7,0.4-2.6,0.4c-1.2,0-2.2-0.2-3.1-0.6c-0.9-0.4-1.7-1-2.4-1.7
				c-0.6-0.7-1.1-1.5-1.5-2.5c-0.3-1-0.5-2-0.5-3.1s0.2-2.2,0.5-3.2s0.8-1.8,1.5-2.6c0.6-0.7,1.4-1.3,2.4-1.7c0.9-0.4,2-0.6,3.1-0.6
				c0.8,0,1.6,0.1,2.4,0.4c0.7,0.2,1.4,0.6,2,1.1c0.6,0.5,1.1,1,1.5,1.7c0.4,0.7,0.6,1.5,0.7,2.3h-3.2
				C130.2,8.2,130.1,7.8,129.9,7.5z"/>
			<path id="XMLID_532_" d="M135.1,10.8c0.3-0.7,0.7-1.3,1.2-1.8s1.1-0.9,1.8-1.2c0.7-0.3,1.5-0.4,2.3-0.4c0.9,0,1.7,0.1,2.4,0.4
				s1.3,0.7,1.8,1.2s0.9,1.1,1.2,1.8c0.3,0.7,0.4,1.5,0.4,2.4s-0.1,1.7-0.4,2.4s-0.7,1.3-1.2,1.8s-1.1,0.9-1.8,1.2s-1.5,0.4-2.4,0.4
				c-0.9,0-1.6-0.1-2.3-0.4c-0.7-0.3-1.3-0.7-1.8-1.2s-0.9-1.1-1.2-1.8c-0.3-0.7-0.4-1.5-0.4-2.4C134.7,12.3,134.9,11.5,135.1,10.8z
				 M137.9,14.5c0.1,0.4,0.2,0.8,0.4,1.1s0.5,0.6,0.8,0.8s0.8,0.3,1.3,0.3s0.9-0.1,1.3-0.3c0.3-0.2,0.6-0.5,0.8-0.8s0.4-0.7,0.4-1.1
				c0.1-0.4,0.1-0.9,0.1-1.3c0-0.4,0-0.9-0.1-1.3c-0.1-0.4-0.2-0.8-0.4-1.1c-0.2-0.3-0.5-0.6-0.8-0.8c-0.3-0.2-0.8-0.3-1.3-0.3
				s-0.9,0.1-1.3,0.3c-0.3,0.2-0.6,0.5-0.8,0.8s-0.4,0.7-0.4,1.1c-0.1,0.4-0.1,0.9-0.1,1.3S137.8,14.1,137.9,14.5z"/>
			<path id="XMLID_530_" d="M150.4,7.7v2l0,0c0.1-0.3,0.3-0.7,0.6-0.9c0.2-0.3,0.5-0.5,0.8-0.7s0.6-0.4,1-0.5s0.7-0.2,1.1-0.2
				c0.2,0,0.4,0,0.7,0.1v2.8c-0.1,0-0.3-0.1-0.5-0.1c-0.2,0-0.4,0-0.6,0c-0.6,0-1,0.1-1.4,0.3c-0.4,0.2-0.7,0.4-0.9,0.8
				c-0.2,0.3-0.4,0.7-0.5,1.1c-0.1,0.4-0.1,0.9-0.1,1.4v5h-3v-11L150.4,7.7L150.4,7.7z"/>
			<path id="XMLID_527_" d="M158.6,7.7v1.4l0,0c0.4-0.6,0.8-1,1.4-1.3s1.2-0.4,1.9-0.4c0.9,0,1.6,0.2,2.2,0.5
				c0.6,0.3,1.1,0.8,1.6,1.3c0.4,0.5,0.7,1.2,0.9,1.9c0.2,0.7,0.3,1.5,0.3,2.3c0,0.7-0.1,1.5-0.3,2.1c-0.2,0.7-0.5,1.3-0.9,1.8
				s-0.9,0.9-1.5,1.3c-0.6,0.3-1.3,0.5-2.1,0.5c-0.7,0-1.3-0.1-1.9-0.4c-0.6-0.3-1-0.7-1.4-1.2l0,0v5.2h-3v-15H158.6z M162.5,16.4
				c0.3-0.2,0.6-0.5,0.8-0.8s0.4-0.7,0.4-1.1c0.1-0.4,0.1-0.9,0.1-1.3c0-0.4,0-0.9-0.1-1.3c-0.1-0.4-0.2-0.8-0.5-1.1
				c-0.2-0.3-0.5-0.6-0.8-0.8c-0.3-0.2-0.7-0.3-1.2-0.3s-0.9,0.1-1.2,0.3c-0.3,0.2-0.6,0.5-0.8,0.8c-0.2,0.3-0.4,0.7-0.4,1.1
				c-0.1,0.4-0.1,0.9-0.1,1.3c0,0.4,0,0.9,0.1,1.3c0.1,0.4,0.2,0.8,0.4,1.1c0.2,0.3,0.5,0.6,0.8,0.8c0.3,0.2,0.8,0.3,1.2,0.3
				C161.8,16.7,162.2,16.6,162.5,16.4z"/>
			<path id="XMLID_524_" d="M168.3,10.8c0.3-0.7,0.7-1.3,1.2-1.8s1.1-0.9,1.8-1.2c0.7-0.3,1.5-0.4,2.3-0.4c0.9,0,1.7,0.1,2.4,0.4
				c0.7,0.3,1.3,0.7,1.8,1.2s0.9,1.1,1.2,1.8c0.3,0.7,0.4,1.5,0.4,2.4s-0.1,1.7-0.4,2.4c-0.3,0.7-0.7,1.3-1.2,1.8s-1.1,0.9-1.8,1.2
				c-0.7,0.3-1.5,0.4-2.4,0.4s-1.6-0.1-2.3-0.4c-0.7-0.3-1.3-0.7-1.8-1.2s-0.9-1.1-1.2-1.8s-0.4-1.5-0.4-2.4S168,11.5,168.3,10.8z
				 M171,14.5c0.1,0.4,0.2,0.8,0.4,1.1c0.2,0.3,0.5,0.6,0.8,0.8c0.3,0.2,0.8,0.3,1.3,0.3s0.9-0.1,1.3-0.3c0.3-0.2,0.6-0.5,0.8-0.8
				c0.2-0.3,0.4-0.7,0.4-1.1c0.1-0.4,0.1-0.9,0.1-1.3c0-0.4,0-0.9-0.1-1.3c-0.1-0.4-0.2-0.8-0.4-1.1c-0.2-0.3-0.5-0.6-0.8-0.8
				c-0.3-0.2-0.8-0.3-1.3-0.3s-0.9,0.1-1.3,0.3c-0.3,0.2-0.6,0.5-0.8,0.8c-0.2,0.3-0.4,0.7-0.4,1.1c-0.1,0.4-0.1,0.9-0.1,1.3
				S171,14.1,171,14.5z"/>
			<path id="XMLID_522_" d="M183.2,7.7v2l0,0c0.1-0.3,0.3-0.7,0.6-0.9c0.2-0.3,0.5-0.5,0.8-0.7c0.3-0.2,0.6-0.4,1-0.5
				c0.4-0.1,0.7-0.2,1.1-0.2c0.2,0,0.4,0,0.7,0.1v2.8c-0.1,0-0.3-0.1-0.5-0.1s-0.4,0-0.6,0c-0.6,0-1,0.1-1.4,0.3
				c-0.4,0.2-0.7,0.4-0.9,0.8c-0.2,0.3-0.4,0.7-0.5,1.1c-0.1,0.4-0.1,0.9-0.1,1.4v5h-3v-11L183.2,7.7L183.2,7.7z"/>
			<path id="XMLID_519_" d="M188.3,11c0-0.7,0.2-1.3,0.5-1.8s0.7-0.8,1.2-1.1c0.5-0.3,1-0.5,1.6-0.6c0.6-0.1,1.2-0.2,1.8-0.2
				s1.1,0,1.7,0.1c0.6,0.1,1.1,0.2,1.6,0.5c0.5,0.2,0.9,0.5,1.2,0.9s0.4,0.9,0.4,1.6v5.7c0,0.5,0,1,0.1,1.4c0.1,0.5,0.2,0.8,0.3,1
				h-3.1c-0.1-0.2-0.1-0.3-0.1-0.5s-0.1-0.4-0.1-0.5c-0.5,0.5-1.1,0.8-1.7,1c-0.7,0.2-1.3,0.3-2,0.3c-0.5,0-1-0.1-1.5-0.2
				c-0.5-0.1-0.9-0.3-1.2-0.6c-0.3-0.3-0.6-0.6-0.8-1c-0.2-0.4-0.3-0.9-0.3-1.5s0.1-1.1,0.3-1.5c0.2-0.4,0.5-0.7,0.9-1
				c0.3-0.2,0.7-0.4,1.2-0.5c0.4-0.1,0.9-0.2,1.4-0.3s0.9-0.1,1.3-0.2c0.4,0,0.8-0.1,1.2-0.2c0.3-0.1,0.6-0.2,0.8-0.4
				c0.2-0.2,0.3-0.4,0.3-0.7c0-0.3-0.1-0.6-0.2-0.8c-0.1-0.2-0.2-0.3-0.4-0.4c-0.2-0.1-0.4-0.2-0.6-0.2c-0.2,0-0.5-0.1-0.8-0.1
				c-0.6,0-1.1,0.1-1.4,0.4s-0.5,0.7-0.6,1.3h-3V11z M195.3,13.3c-0.1,0.1-0.3,0.2-0.5,0.3s-0.4,0.1-0.6,0.2c-0.2,0-0.5,0.1-0.7,0.1
				c-0.2,0-0.5,0.1-0.7,0.1c-0.2,0-0.5,0.1-0.7,0.2c-0.2,0.1-0.4,0.2-0.6,0.3s-0.3,0.3-0.4,0.5c-0.1,0.2-0.1,0.4-0.1,0.7
				s0,0.5,0.1,0.7c0.1,0.2,0.2,0.3,0.4,0.4c0.2,0.1,0.4,0.2,0.6,0.2c0.2,0,0.5,0.1,0.7,0.1c0.6,0,1.1-0.1,1.4-0.3s0.6-0.4,0.7-0.7
				c0.2-0.3,0.3-0.6,0.3-0.8c0-0.3,0.1-0.5,0.1-0.7C195.3,14.6,195.3,13.3,195.3,13.3z"/>
			<path id="XMLID_517_" d="M206.2,7.7v2H204v5.5c0,0.5,0.1,0.9,0.3,1c0.2,0.2,0.5,0.3,1,0.3c0.2,0,0.3,0,0.5,0s0.3,0,0.4-0.1v2.3
				c-0.3,0-0.5,0.1-0.9,0.1c-0.3,0-0.6,0-0.9,0c-0.5,0-0.9,0-1.3-0.1c-0.4-0.1-0.8-0.2-1.1-0.4s-0.6-0.4-0.8-0.8
				c-0.2-0.3-0.3-0.8-0.3-1.3V9.7h-1.8v-2h1.8V4.4h3v3.3H206.2z"/>
			<path id="XMLID_514_" d="M210.4,16c0.5,0.4,1.1,0.7,2,0.7c0.6,0,1.1-0.2,1.6-0.5c0.4-0.3,0.7-0.6,0.8-1h2.7
				c-0.4,1.3-1.1,2.3-2,2.8c-0.9,0.6-1.9,0.9-3.2,0.9c-0.9,0-1.6-0.1-2.3-0.4c-0.7-0.3-1.3-0.7-1.8-1.2s-0.9-1.1-1.1-1.8
				c-0.3-0.7-0.4-1.5-0.4-2.3s0.1-1.6,0.4-2.3c0.3-0.7,0.7-1.3,1.2-1.8s1.1-0.9,1.8-1.2c0.7-0.3,1.5-0.4,2.3-0.4
				c0.9,0,1.8,0.2,2.5,0.5c0.7,0.4,1.3,0.9,1.7,1.5s0.8,1.3,1,2.1c0.2,0.8,0.3,1.6,0.2,2.5h-7.9C209.7,14.9,209.9,15.6,210.4,16z
				 M213.8,10.2c-0.4-0.4-0.9-0.6-1.7-0.6c-0.5,0-0.9,0.1-1.2,0.2c-0.3,0.2-0.6,0.4-0.8,0.6s-0.3,0.5-0.4,0.8
				c-0.1,0.3-0.1,0.5-0.1,0.7h4.9C214.4,11.2,214.2,10.6,213.8,10.2z"/>
			<path id="XMLID_512_" d="M124.8,23.9l3.6,10.5l0,0l3.4-10.5h4.7v15.2h-3.1V28.3l0,0l-3.7,10.8H127l-3.7-10.7l0,0v10.7h-3.1V23.9
				H124.8z"/>
			<path id="XMLID_509_" d="M138.1,31.5c0-0.7,0.2-1.3,0.5-1.8c0.3-0.5,0.7-0.8,1.2-1.1s1-0.5,1.6-0.6s1.2-0.2,1.8-0.2
				c0.6,0,1.1,0,1.7,0.1s1.1,0.2,1.6,0.5c0.5,0.2,0.9,0.5,1.2,0.9c0.3,0.4,0.4,0.9,0.4,1.6v5.7c0,0.5,0,1,0.1,1.4
				c0.1,0.5,0.2,0.8,0.3,1h-3.1c-0.1-0.2-0.1-0.3-0.1-0.5s-0.1-0.4-0.1-0.5c-0.5,0.5-1.1,0.8-1.7,1c-0.7,0.2-1.3,0.3-2,0.3
				c-0.5,0-1-0.1-1.5-0.2c-0.5-0.1-0.9-0.3-1.2-0.6s-0.6-0.6-0.8-1c-0.2-0.4-0.3-0.9-0.3-1.5s0.1-1.1,0.3-1.5c0.2-0.4,0.5-0.7,0.9-1
				c0.3-0.2,0.7-0.4,1.2-0.5c0.4-0.1,0.9-0.2,1.4-0.3s0.9-0.1,1.3-0.2c0.4,0,0.8-0.1,1.2-0.2c0.3-0.1,0.6-0.2,0.8-0.4
				s0.3-0.4,0.3-0.7s-0.1-0.6-0.2-0.8s-0.2-0.3-0.4-0.4c-0.2-0.1-0.4-0.2-0.6-0.2s-0.5-0.1-0.8-0.1c-0.6,0-1.1,0.1-1.4,0.4
				c-0.3,0.3-0.5,0.7-0.6,1.3L138.1,31.5L138.1,31.5z M145,33.7c-0.1,0.1-0.3,0.2-0.5,0.3s-0.4,0.1-0.6,0.2c-0.2,0-0.5,0.1-0.7,0.1
				c-0.2,0-0.5,0.1-0.7,0.1c-0.2,0-0.5,0.1-0.7,0.2c-0.2,0.1-0.4,0.2-0.6,0.3s-0.3,0.3-0.4,0.5c-0.1,0.2-0.1,0.4-0.1,0.7
				s0,0.5,0.1,0.7c0.1,0.2,0.2,0.3,0.4,0.4c0.2,0.1,0.4,0.2,0.6,0.2c0.2,0,0.5,0.1,0.7,0.1c0.6,0,1.1-0.1,1.4-0.3s0.6-0.4,0.7-0.7
				c0.2-0.3,0.3-0.6,0.3-0.8c0-0.3,0.1-0.5,0.1-0.7C145,35,145,33.7,145,33.7z"/>
			<path id="XMLID_507_" d="M153,23.9v15.2h-3V23.9H153z"/>
			<path id="XMLID_504_" d="M154.7,31.5c0-0.7,0.2-1.3,0.5-1.8s0.7-0.8,1.2-1.1s1-0.5,1.6-0.6c0.6-0.1,1.2-0.2,1.8-0.2
				s1.1,0,1.7,0.1c0.6,0.1,1.1,0.2,1.6,0.5c0.5,0.2,0.9,0.5,1.2,0.9c0.3,0.4,0.4,0.9,0.4,1.6v5.7c0,0.5,0,1,0.1,1.4
				c0.1,0.5,0.2,0.8,0.3,1H162c-0.1-0.2-0.1-0.3-0.1-0.5s-0.1-0.4-0.1-0.5c-0.5,0.5-1.1,0.8-1.7,1c-0.7,0.2-1.3,0.3-2,0.3
				c-0.5,0-1-0.1-1.5-0.2c-0.5-0.1-0.9-0.3-1.2-0.6s-0.6-0.6-0.8-1c-0.2-0.4-0.3-0.9-0.3-1.5s0.1-1.1,0.3-1.5c0.2-0.4,0.5-0.7,0.9-1
				c0.3-0.2,0.7-0.4,1.2-0.5c0.4-0.1,0.9-0.2,1.4-0.3s0.9-0.1,1.3-0.2c0.4,0,0.8-0.1,1.2-0.2c0.3-0.1,0.6-0.2,0.8-0.4
				s0.3-0.4,0.3-0.7s-0.1-0.6-0.2-0.8s-0.2-0.3-0.4-0.4c-0.2-0.1-0.4-0.2-0.6-0.2s-0.5-0.1-0.8-0.1c-0.6,0-1.1,0.1-1.4,0.4
				c-0.3,0.3-0.5,0.7-0.6,1.3L154.7,31.5L154.7,31.5z M161.7,33.7c-0.1,0.1-0.3,0.2-0.5,0.3s-0.4,0.1-0.6,0.2
				c-0.2,0-0.5,0.1-0.7,0.1c-0.2,0-0.5,0.1-0.7,0.1c-0.2,0-0.5,0.1-0.7,0.2c-0.2,0.1-0.4,0.2-0.6,0.3s-0.3,0.3-0.4,0.5
				c-0.1,0.2-0.1,0.4-0.1,0.7s0,0.5,0.1,0.7c0.1,0.2,0.2,0.3,0.4,0.4c0.2,0.1,0.4,0.2,0.6,0.2c0.2,0,0.5,0.1,0.7,0.1
				c0.6,0,1.1-0.1,1.4-0.3s0.6-0.4,0.7-0.7c0.2-0.3,0.3-0.6,0.3-0.8c0-0.3,0.1-0.5,0.1-0.7C161.7,35,161.7,33.7,161.7,33.7z"/>
			<path id="XMLID_502_" d="M170.6,42.4c-0.6,0.4-1.4,0.6-2.4,0.6c-0.3,0-0.6,0-0.9,0c-0.3,0-0.6,0-0.9-0.1v-2.5
				c0.3,0,0.6,0.1,0.9,0.1c0.3,0,0.6,0,0.9,0c0.4,0,0.7-0.2,0.9-0.5c0.2-0.3,0.3-0.6,0.3-0.9c0-0.2,0-0.5-0.1-0.7l-3.9-10.3h3.2
				l2.5,7.6l0,0l2.4-7.6h3.1L172,40.5C171.7,41.4,171.2,42,170.6,42.4z"/>
			<path id="XMLID_500_" d="M179.6,36.4c0.1,0.2,0.3,0.4,0.5,0.6c0.2,0.2,0.5,0.3,0.7,0.3c0.3,0.1,0.6,0.1,0.9,0.1
				c0.2,0,0.4,0,0.7-0.1c0.2,0,0.4-0.1,0.6-0.2c0.2-0.1,0.4-0.2,0.5-0.4c0.1-0.2,0.2-0.4,0.2-0.7c0-0.5-0.3-0.8-0.9-1
				s-1.4-0.5-2.5-0.7c-0.4-0.1-0.9-0.2-1.3-0.4c-0.4-0.1-0.8-0.3-1.1-0.5c-0.3-0.2-0.6-0.5-0.8-0.8c-0.2-0.3-0.3-0.7-0.3-1.2
				c0-0.7,0.1-1.3,0.4-1.7c0.3-0.5,0.6-0.8,1.1-1.1s1-0.4,1.5-0.6c0.6-0.1,1.2-0.2,1.7-0.2c0.6,0,1.2,0.1,1.7,0.2
				c0.6,0.1,1.1,0.3,1.5,0.6c0.4,0.3,0.8,0.6,1.1,1.1c0.3,0.4,0.5,1,0.5,1.7h-2.9c0-0.6-0.3-1-0.7-1.2c-0.4-0.2-0.9-0.3-1.4-0.3
				c-0.2,0-0.4,0-0.6,0c-0.2,0-0.4,0.1-0.5,0.1c-0.2,0.1-0.3,0.2-0.4,0.3s-0.2,0.3-0.2,0.5c0,0.3,0.1,0.5,0.3,0.7s0.5,0.3,0.8,0.4
				c0.3,0.1,0.7,0.2,1.1,0.3c0.4,0.1,0.8,0.2,1.3,0.3c0.4,0.1,0.9,0.2,1.3,0.4c0.4,0.1,0.8,0.3,1.1,0.6c0.3,0.2,0.6,0.5,0.8,0.9
				c0.2,0.3,0.3,0.8,0.3,1.3c0,0.7-0.1,1.3-0.4,1.8c-0.3,0.5-0.7,0.9-1.1,1.2c-0.5,0.3-1,0.5-1.6,0.6c-0.6,0.1-1.2,0.2-1.8,0.2
				c-0.6,0-1.3-0.1-1.9-0.2c-0.6-0.1-1.2-0.3-1.6-0.6c-0.5-0.3-0.9-0.7-1.2-1.2c-0.3-0.5-0.5-1.1-0.5-1.8h2.9
				C179.4,35.9,179.5,36.2,179.6,36.4z"/>
			<path id="XMLID_497_" d="M188.1,26.4v-2.5h3v2.5H188.1z M191.1,28.1v11h-3v-11H191.1z"/>
			<path id="XMLID_494_" d="M192.4,31.5c0-0.7,0.2-1.3,0.5-1.8c0.3-0.5,0.7-0.8,1.2-1.1s1-0.5,1.6-0.6c0.6-0.1,1.2-0.2,1.8-0.2
				s1.1,0,1.7,0.1c0.6,0.1,1.1,0.2,1.6,0.5c0.5,0.2,0.9,0.5,1.2,0.9s0.4,0.9,0.4,1.6v5.7c0,0.5,0,1,0.1,1.4c0.1,0.5,0.2,0.8,0.3,1
				h-3.1c-0.1-0.2-0.1-0.3-0.1-0.5s-0.1-0.4-0.1-0.5c-0.5,0.5-1.1,0.8-1.7,1c-0.7,0.2-1.3,0.3-2,0.3c-0.5,0-1-0.1-1.5-0.2
				c-0.5-0.1-0.9-0.3-1.2-0.6s-0.6-0.6-0.8-1c-0.2-0.4-0.3-0.9-0.3-1.5s0.1-1.1,0.3-1.5c0.2-0.4,0.5-0.7,0.9-1
				c0.3-0.2,0.7-0.4,1.2-0.5c0.4-0.1,0.9-0.2,1.4-0.3s0.9-0.1,1.3-0.2c0.4,0,0.8-0.1,1.2-0.2c0.3-0.1,0.6-0.2,0.8-0.4
				s0.3-0.4,0.3-0.7s-0.1-0.6-0.2-0.8c-0.1-0.2-0.2-0.3-0.4-0.4c-0.2-0.1-0.4-0.2-0.6-0.2c-0.2,0-0.5-0.1-0.8-0.1
				c-0.6,0-1.1,0.1-1.4,0.4c-0.3,0.3-0.5,0.7-0.6,1.3L192.4,31.5L192.4,31.5z M199.4,33.7c-0.1,0.1-0.3,0.2-0.5,0.3
				s-0.4,0.1-0.6,0.2c-0.2,0-0.5,0.1-0.7,0.1s-0.5,0.1-0.7,0.1s-0.5,0.1-0.7,0.2c-0.2,0.1-0.4,0.2-0.6,0.3c-0.2,0.1-0.3,0.3-0.4,0.5
				s-0.1,0.4-0.1,0.7s0,0.5,0.1,0.7s0.2,0.3,0.4,0.4c0.2,0.1,0.4,0.2,0.6,0.2s0.5,0.1,0.7,0.1c0.6,0,1.1-0.1,1.4-0.3
				c0.3-0.2,0.6-0.4,0.7-0.7c0.2-0.3,0.3-0.6,0.3-0.8c0-0.3,0.1-0.5,0.1-0.7V33.7z"/>
			<path id="XMLID_492_" d="M207.1,28.1v1.5h0.1c0.4-0.6,0.9-1.1,1.5-1.4c0.6-0.3,1.2-0.4,1.9-0.4c0.8,0,1.5,0.1,2,0.3
				s0.9,0.5,1.2,0.9s0.5,0.9,0.6,1.4c0.1,0.6,0.2,1.2,0.2,1.9v6.8h-3v-6.2c0-0.9-0.1-1.6-0.4-2c-0.3-0.4-0.8-0.7-1.5-0.7
				c-0.8,0-1.4,0.2-1.8,0.7c-0.4,0.5-0.6,1.3-0.6,2.4v5.8h-3v-11H207.1z"/>
			<path id="XMLID_428_" d="M218.9,36.4c0.1,0.2,0.3,0.4,0.5,0.6c0.2,0.1,0.5,0.3,0.7,0.3c0.3,0.1,0.6,0.1,0.9,0.1
				c0.2,0,0.4,0,0.7-0.1c0.2,0,0.4-0.1,0.6-0.2c0.2-0.1,0.4-0.2,0.5-0.4s0.2-0.4,0.2-0.7c0-0.5-0.3-0.8-0.9-1
				c-0.6-0.2-1.4-0.5-2.5-0.7c-0.4-0.1-0.9-0.2-1.3-0.4c-0.4-0.1-0.8-0.3-1.1-0.5s-0.6-0.5-0.8-0.8s-0.3-0.7-0.3-1.2
				c0-0.7,0.1-1.3,0.4-1.7c0.3-0.5,0.6-0.8,1.1-1.1s1-0.4,1.5-0.6c0.6-0.1,1.2-0.2,1.7-0.2c0.6,0,1.2,0.1,1.7,0.2
				c0.6,0.1,1.1,0.3,1.5,0.6s0.8,0.6,1.1,1.1c0.3,0.4,0.5,1,0.5,1.7h-2.9c0-0.6-0.3-1-0.7-1.2s-0.9-0.3-1.4-0.3c-0.2,0-0.4,0-0.6,0
				c-0.2,0-0.4,0.1-0.5,0.1c-0.2,0.1-0.3,0.2-0.4,0.3c-0.1,0.1-0.2,0.3-0.2,0.5c0,0.3,0.1,0.5,0.3,0.7s0.5,0.3,0.8,0.4
				c0.3,0.1,0.7,0.2,1.1,0.3c0.4,0.1,0.8,0.2,1.3,0.3c0.4,0.1,0.9,0.2,1.3,0.4c0.4,0.1,0.8,0.3,1.1,0.6c0.3,0.2,0.6,0.5,0.8,0.9
				c0.2,0.3,0.3,0.8,0.3,1.3c0,0.7-0.1,1.3-0.4,1.8c-0.3,0.5-0.7,0.9-1.1,1.2c-0.5,0.3-1,0.5-1.6,0.6s-1.2,0.2-1.8,0.2
				s-1.3-0.1-1.9-0.2c-0.6-0.1-1.2-0.3-1.6-0.6c-0.5-0.3-0.9-0.7-1.2-1.2s-0.5-1.1-0.5-1.8h2.9C218.7,35.9,218.7,36.2,218.9,36.4z"
				/>
		</g>
	</g>
</g>
</svg>
