<?xml version="1.0" encoding="utf-8"?>
<!-- Generator: Adobe Illustrator 19.0.0, SVG Export Plug-In . SVG Version: 6.00 Build 0)  -->
<svg version="1.1" id="Layer_1" xmlns="http://www.w3.org/2000/svg" xmlns:xlink="http://www.w3.org/1999/xlink" x="0px" y="0px"
	 viewBox="0 0 240 240" style="enable-background:new 0 0 240 240;" xml:space="preserve">
<g id="XMLID_286_" style="opacity:0.3;">
	<line id="XMLID_115_" style="fill:none;stroke:#FFFFFF;stroke-miterlimit:10;" x1="80" y1="108" x2="80" y2="80"/>
	<line id="XMLID_117_" style="fill:none;stroke:#FFFFFF;stroke-miterlimit:10;" x1="80" y1="108" x2="36" y2="124"/>
	<line id="XMLID_119_" style="fill:none;stroke:#FFFFFF;stroke-miterlimit:10;" x1="72" y1="36" x2="132" y2="80"/>
	<line id="XMLID_120_" style="fill:none;stroke:#FFFFFF;stroke-miterlimit:10;" x1="116" y1="40" x2="132" y2="80"/>
	<line id="XMLID_121_" style="fill:none;stroke:#FFFFFF;stroke-miterlimit:10;" x1="132" y1="80" x2="188" y2="44"/>
	<line id="XMLID_187_" style="fill:none;stroke:#FFFFFF;stroke-miterlimit:10;" x1="168" y1="100" x2="132" y2="80"/>
	<line id="XMLID_188_" style="fill:none;stroke:#FFFFFF;stroke-miterlimit:10;" x1="156" y1="120" x2="132" y2="80"/>
	<line id="XMLID_189_" style="fill:none;stroke:#FFFFFF;stroke-miterlimit:10;" x1="120" y1="120" x2="80" y2="108"/>
	<line id="XMLID_190_" style="fill:none;stroke:#FFFFFF;stroke-miterlimit:10;" x1="120" y1="120" x2="132" y2="80"/>
	<line id="XMLID_191_" style="fill:none;stroke:#FFFFFF;stroke-miterlimit:10;" x1="60" y1="200" x2="100" y2="168"/>
	<line id="XMLID_192_" style="fill:none;stroke:#FFFFFF;stroke-miterlimit:10;" x1="100" y1="168" x2="64" y2="156"/>
	<line id="XMLID_193_" style="fill:none;stroke:#FFFFFF;stroke-miterlimit:10;" x1="100" y1="168" x2="120" y2="200"/>
	<line id="XMLID_195_" style="fill:none;stroke:#FFFFFF;stroke-miterlimit:10;" x1="100" y1="168" x2="120" y2="120"/>
	<line id="XMLID_214_" style="fill:none;stroke:#FFFFFF;stroke-miterlimit:10;" x1="184" y1="180" x2="144" y2="160"/>
	<line id="XMLID_215_" style="fill:none;stroke:#FFFFFF;stroke-miterlimit:10;" x1="184" y1="180" x2="204" y2="148"/>
	<line id="XMLID_218_" style="fill:none;stroke:#FFFFFF;stroke-miterlimit:10;" x1="80" y1="108" x2="44" y2="80"/>
	<line id="XMLID_219_" style="fill:none;stroke:#FFFFFF;stroke-miterlimit:10;" x1="176" y1="136" x2="184" y2="180"/>
	<line id="XMLID_220_" style="fill:none;stroke:#FFFFFF;stroke-miterlimit:10;" x1="184" y1="180" x2="160" y2="188"/>
	<line id="XMLID_221_" style="fill:none;stroke:#FFFFFF;stroke-miterlimit:10;" x1="184" y1="180" x2="212" y2="212"/>
	<line id="XMLID_194_" style="fill:none;stroke:#FFFFFF;stroke-miterlimit:10;" x1="184" y1="180" x2="120" y2="120"/>
</g>
<g id="XMLID_196_">
	<circle id="XMLID_213_" style="fill:#FFFFFF;" cx="120" cy="120" r="4"/>
	<circle id="XMLID_212_" style="fill:#FFFFFF;" cx="204" cy="148" r="4"/>
	<circle id="XMLID_211_" style="fill:#FFFFFF;" cx="100" cy="168" r="4"/>
	<circle id="XMLID_210_" style="fill:#FFFFFF;" cx="60" cy="200" r="4"/>
	<circle id="XMLID_209_" style="fill:#FFFFFF;" cx="168" cy="100" r="4"/>
	<circle id="XMLID_208_" style="fill:#FFFFFF;" cx="184" cy="180" r="4"/>
	<circle id="XMLID_217_" style="fill:#FFFFFF;" cx="176" cy="136" r="4"/>
	<circle id="XMLID_216_" style="fill:#FFFFFF;" cx="212" cy="212" r="4"/>
	<circle id="XMLID_118_" style="fill:#FFFFFF;" cx="160" cy="188" r="4"/>
	<circle id="XMLID_207_" style="fill:#FFFFFF;" cx="144" cy="160" r="4"/>
	<circle id="XMLID_206_" style="fill:#FFFFFF;" cx="80" cy="80" r="4"/>
	<circle id="XMLID_116_" style="fill:#FFFFFF;" cx="44" cy="80" r="4"/>
	<circle id="XMLID_205_" style="fill:#FFFFFF;" cx="156" cy="120" r="4"/>
	<circle id="XMLID_204_" style="fill:#FFFFFF;" cx="72" cy="36" r="4"/>
	<circle id="XMLID_203_" style="fill:#FFFFFF;" cx="116" cy="40" r="4"/>
	<circle id="XMLID_202_" style="fill:#FFFFFF;" cx="80" cy="108" r="4"/>
	<circle id="XMLID_201_" style="fill:#FFFFFF;" cx="120" cy="200" r="4"/>
	<circle id="XMLID_200_" style="fill:#FFFFFF;" cx="64" cy="156" r="4"/>
	<circle id="XMLID_199_" style="fill:#FFFFFF;" cx="36" cy="124" r="4"/>
	<circle id="XMLID_198_" style="fill:#FFFFFF;" cx="132" cy="80" r="4"/>
	<circle id="XMLID_197_" style="fill:#FFFFFF;" cx="188" cy="44" r="4"/>
</g>
</svg>
