<?xml version="1.0" encoding="utf-8"?>
<!-- Generator: Adobe Illustrator 19.0.0, SVG Export Plug-In . SVG Version: 6.00 Build 0)  -->
<svg version="1.1" id="Layer_1" xmlns="http://www.w3.org/2000/svg" xmlns:xlink="http://www.w3.org/1999/xlink" x="0px" y="0px"
	 viewBox="0 0 240 240" style="enable-background:new 0 0 240 240;" xml:space="preserve">
<g id="XMLID_173_" style="opacity:0.3;">
	<line id="XMLID_70_" style="fill:none;stroke:#FFFFFF;stroke-miterlimit:10;" x1="120" y1="120" x2="188" y2="44"/>
	<line id="XMLID_71_" style="fill:none;stroke:#FFFFFF;stroke-miterlimit:10;" x1="120" y1="120" x2="132" y2="80"/>
	<line id="XMLID_72_" style="fill:none;stroke:#FFFFFF;stroke-miterlimit:10;" x1="120" y1="120" x2="116" y2="40"/>
	<line id="XMLID_73_" style="fill:none;stroke:#FFFFFF;stroke-miterlimit:10;" x1="120" y1="120" x2="72" y2="36"/>
	<line id="XMLID_74_" style="fill:none;stroke:#FFFFFF;stroke-miterlimit:10;" x1="120" y1="120" x2="80" y2="80"/>
	<line id="XMLID_75_" style="fill:none;stroke:#FFFFFF;stroke-miterlimit:10;" x1="120" y1="120" x2="80" y2="108"/>
	<line id="XMLID_76_" style="fill:none;stroke:#FFFFFF;stroke-miterlimit:10;" x1="36" y1="124" x2="120" y2="120"/>
	<line id="XMLID_77_" style="fill:none;stroke:#FFFFFF;stroke-miterlimit:10;" x1="120" y1="120" x2="64" y2="156"/>
	<line id="XMLID_78_" style="fill:none;stroke:#FFFFFF;stroke-miterlimit:10;" x1="120" y1="120" x2="100" y2="168"/>
	<line id="XMLID_79_" style="fill:none;stroke:#FFFFFF;stroke-miterlimit:10;" x1="120" y1="120" x2="60" y2="200"/>
	<line id="XMLID_80_" style="fill:none;stroke:#FFFFFF;stroke-miterlimit:10;" x1="120" y1="120" x2="120" y2="200"/>
	<line id="XMLID_81_" style="fill:none;stroke:#FFFFFF;stroke-miterlimit:10;" x1="120" y1="120" x2="144" y2="160"/>
	<line id="XMLID_82_" style="fill:none;stroke:#FFFFFF;stroke-miterlimit:10;" x1="120" y1="120" x2="184" y2="180"/>
	<line id="XMLID_83_" style="fill:none;stroke:#FFFFFF;stroke-miterlimit:10;" x1="120" y1="120" x2="204" y2="148"/>
	<line id="XMLID_84_" style="fill:none;stroke:#FFFFFF;stroke-miterlimit:10;" x1="168" y1="100" x2="120" y2="120"/>
	<line id="XMLID_87_" style="fill:none;stroke:#FFFFFF;stroke-miterlimit:10;" x1="120" y1="120" x2="156" y2="120"/>
</g>
<g id="XMLID_54_">
	<circle id="XMLID_53_" style="fill:#FFFFFF;" cx="120" cy="120" r="4"/>
	<circle id="XMLID_68_" style="fill:#FFFFFF;" cx="204" cy="148" r="4"/>
	<circle id="XMLID_67_" style="fill:#FFFFFF;" cx="100" cy="168" r="4"/>
	<circle id="XMLID_66_" style="fill:#FFFFFF;" cx="60" cy="200" r="4"/>
	<circle id="XMLID_63_" style="fill:#FFFFFF;" cx="168" cy="100" r="4"/>
	<circle id="XMLID_69_" style="fill:#FFFFFF;" cx="184" cy="180" r="4"/>
	<circle id="XMLID_62_" style="fill:#FFFFFF;" cx="144" cy="160" r="4"/>
	<circle id="XMLID_55_" style="fill:#FFFFFF;" cx="80" cy="80" r="4"/>
	<circle id="XMLID_85_" style="fill:#FFFFFF;" cx="156" cy="120" r="4"/>
	<circle id="XMLID_65_" style="fill:#FFFFFF;" cx="72" cy="36" r="4"/>
	<circle id="XMLID_58_" style="fill:#FFFFFF;" cx="116" cy="40" r="4"/>
	<circle id="XMLID_56_" style="fill:#FFFFFF;" cx="80" cy="108" r="4"/>
	<circle id="XMLID_61_" style="fill:#FFFFFF;" cx="120" cy="200" r="4"/>
	<circle id="XMLID_60_" style="fill:#FFFFFF;" cx="64" cy="156" r="4"/>
	<circle id="XMLID_59_" style="fill:#FFFFFF;" cx="36" cy="124" r="4"/>
	<circle id="XMLID_57_" style="fill:#FFFFFF;" cx="132" cy="80" r="4"/>
	<circle id="XMLID_64_" style="fill:#FFFFFF;" cx="188" cy="44" r="4"/>
</g>
</svg>
