<?xml version="1.0" encoding="utf-8"?>
<!-- Generator: Adobe Illustrator 19.0.0, SVG Export Plug-In . SVG Version: 6.00 Build 0)  -->
<svg version="1.1" id="Layer_1" xmlns="http://www.w3.org/2000/svg" xmlns:xlink="http://www.w3.org/1999/xlink" x="0px" y="0px"
	 viewBox="0 0 240 240" style="enable-background:new 0 0 240 240;" xml:space="preserve">
<g id="XMLID_123_" style="opacity:0.3;">
	<polygon id="XMLID_322_" style="fill:none;stroke:#FFFFFF;stroke-miterlimit:10;" points="44,80 36,124 80,108 80,80 	"/>
	<line id="XMLID_2_" style="fill:none;stroke:#FFFFFF;stroke-miterlimit:10;" x1="44" y1="80" x2="80" y2="108"/>
	<polyline id="XMLID_1_" style="fill:none;stroke:#FFFFFF;stroke-miterlimit:10;" points="44,80 72,36 116,40 80,80 	"/>
	<line id="XMLID_4_" style="fill:none;stroke:#FFFFFF;stroke-miterlimit:10;" x1="80" y1="80" x2="72" y2="36"/>
	<line id="XMLID_5_" style="fill:none;stroke:#FFFFFF;stroke-miterlimit:10;" x1="116" y1="40" x2="44" y2="80"/>
	<polygon id="XMLID_6_" style="fill:none;stroke:#FFFFFF;stroke-miterlimit:10;" points="64,156 80,108 100,168 	"/>
	<line id="XMLID_7_" style="fill:none;stroke:#FFFFFF;stroke-miterlimit:10;" x1="36" y1="124" x2="64" y2="156"/>
	<polyline id="XMLID_3_" style="fill:none;stroke:#FFFFFF;stroke-miterlimit:10;" points="64,156 60,200 120,200 100,168 	"/>
	<line id="XMLID_9_" style="fill:none;stroke:#FFFFFF;stroke-miterlimit:10;" x1="100" y1="168" x2="60" y2="200"/>
	<line id="XMLID_10_" style="fill:none;stroke:#FFFFFF;stroke-miterlimit:10;" x1="64" y1="156" x2="120" y2="200"/>
	<polyline id="XMLID_11_" style="fill:none;stroke:#FFFFFF;stroke-miterlimit:10;" points="100,168 144,160 160,188 120,200 	"/>
	<polygon id="XMLID_12_" style="fill:none;stroke:#FFFFFF;stroke-miterlimit:10;" points="212,212 160,188 184,180 	"/>
	<polygon id="XMLID_13_" style="fill:none;stroke:#FFFFFF;stroke-miterlimit:10;" points="184,180 204,148 176,136 	"/>
	<line id="XMLID_14_" style="fill:none;stroke:#FFFFFF;stroke-miterlimit:10;" x1="144" y1="160" x2="176" y2="136"/>
	<polygon id="XMLID_15_" style="fill:none;stroke:#FFFFFF;stroke-miterlimit:10;" points="156,120 168,100 176,136 	"/>
	<polygon id="XMLID_16_" style="fill:none;stroke:#FFFFFF;stroke-miterlimit:10;" points="132,80 188,44 168,100 	"/>
	<line id="XMLID_17_" style="fill:none;stroke:#FFFFFF;stroke-miterlimit:10;" x1="132" y1="80" x2="116" y2="40"/>
	<line id="XMLID_18_" style="fill:none;stroke:#FFFFFF;stroke-miterlimit:10;" x1="80" y1="80" x2="132" y2="80"/>
	<polygon id="XMLID_8_" style="fill:none;stroke:#FFFFFF;stroke-miterlimit:10;" points="80,108 120,120 156,120 132,80 	"/>
	<line id="XMLID_20_" style="fill:none;stroke:#FFFFFF;stroke-miterlimit:10;" x1="120" y1="120" x2="132" y2="80"/>
	<polyline id="XMLID_21_" style="fill:none;stroke:#FFFFFF;stroke-miterlimit:10;" points="100,168 120,120 144,160 156,120 	"/>
	<line id="XMLID_22_" style="fill:none;stroke:#FFFFFF;stroke-miterlimit:10;" x1="144" y1="160" x2="80" y2="108"/>
	<line id="XMLID_23_" style="fill:none;stroke:#FFFFFF;stroke-miterlimit:10;" x1="120" y1="200" x2="144" y2="160"/>
	<line id="XMLID_24_" style="fill:none;stroke:#FFFFFF;stroke-miterlimit:10;" x1="100" y1="168" x2="184" y2="180"/>
	<line id="XMLID_25_" style="fill:none;stroke:#FFFFFF;stroke-miterlimit:10;" x1="160" y1="188" x2="176" y2="136"/>
	<line id="XMLID_26_" style="fill:none;stroke:#FFFFFF;stroke-miterlimit:10;" x1="204" y1="148" x2="188" y2="44"/>
	<line id="XMLID_27_" style="fill:none;stroke:#FFFFFF;stroke-miterlimit:10;" x1="168" y1="100" x2="204" y2="148"/>
	<line id="XMLID_28_" style="fill:none;stroke:#FFFFFF;stroke-miterlimit:10;" x1="188" y1="44" x2="116" y2="40"/>
	<line id="XMLID_29_" style="fill:none;stroke:#FFFFFF;stroke-miterlimit:10;" x1="116" y1="40" x2="168" y2="100"/>
</g>
<g id="XMLID_300_">
	<circle id="XMLID_321_" style="fill:#FFFFFF;" cx="120" cy="120" r="4"/>
	<circle id="XMLID_320_" style="fill:#FFFFFF;" cx="204" cy="148" r="4"/>
	<circle id="XMLID_319_" style="fill:#FFFFFF;" cx="100" cy="168" r="4"/>
	<circle id="XMLID_318_" style="fill:#FFFFFF;" cx="60" cy="200" r="4"/>
	<circle id="XMLID_317_" style="fill:#FFFFFF;" cx="168" cy="100" r="4"/>
	<circle id="XMLID_316_" style="fill:#FFFFFF;" cx="184" cy="180" r="4"/>
	<circle id="XMLID_315_" style="fill:#FFFFFF;" cx="176" cy="136" r="4"/>
	<circle id="XMLID_314_" style="fill:#FFFFFF;" cx="212" cy="212" r="4"/>
	<circle id="XMLID_313_" style="fill:#FFFFFF;" cx="160" cy="188" r="4"/>
	<circle id="XMLID_312_" style="fill:#FFFFFF;" cx="144" cy="160" r="4"/>
	<circle id="XMLID_311_" style="fill:#FFFFFF;" cx="80" cy="80" r="4"/>
	<circle id="XMLID_310_" style="fill:#FFFFFF;" cx="44" cy="80" r="4"/>
	<circle id="XMLID_309_" style="fill:#FFFFFF;" cx="156" cy="120" r="4"/>
	<circle id="XMLID_308_" style="fill:#FFFFFF;" cx="72" cy="36" r="4"/>
	<circle id="XMLID_307_" style="fill:#FFFFFF;" cx="116" cy="40" r="4"/>
	<circle id="XMLID_306_" style="fill:#FFFFFF;" cx="80" cy="108" r="4"/>
	<circle id="XMLID_305_" style="fill:#FFFFFF;" cx="120" cy="200" r="4"/>
	<circle id="XMLID_304_" style="fill:#FFFFFF;" cx="64" cy="156" r="4"/>
	<circle id="XMLID_303_" style="fill:#FFFFFF;" cx="36" cy="124" r="4"/>
	<circle id="XMLID_302_" style="fill:#FFFFFF;" cx="132" cy="80" r="4"/>
	<circle id="XMLID_301_" style="fill:#FFFFFF;" cx="188" cy="44" r="4"/>
</g>
</svg>
